<svg id="Layer_1" data-name="Layer 1" xmlns="http://www.w3.org/2000/svg" xmlns:xlink="http://www.w3.org/1999/xlink" viewBox="0 0 2628.83 1231.44"><defs><style>.cls-1{fill:none;}.cls-2{fill:#ffd97d;}.cls-3{fill:url(#Unnamed_Pattern);}.cls-4{fill:#29235c;}.cls-5{fill:#fff;}</style><pattern id="Unnamed_Pattern" data-name="Unnamed Pattern" width="1897.41" height="1123.77" patternUnits="userSpaceOnUse" viewBox="0 0 1897.41 1123.77"><rect class="cls-1" width="1897.41" height="1123.77"/><rect class="cls-2" width="1897.41" height="1123.77"/></pattern></defs><rect class="cls-3" width="2628.83" height="1234.97"/><rect class="cls-1" x="2467.97" y="-609.34" width="145.64" height="1652.87"/><rect class="cls-4" x="2467.97" y="-609.34" width="10.9" height="1652.87"/><rect class="cls-5" x="2479.2" y="-609.34" width="10.9" height="1652.87"/><rect class="cls-4" x="2490.43" y="-609.34" width="10.9" height="1652.87"/><rect class="cls-5" x="2501.66" y="-609.34" width="10.9" height="1652.87"/><rect class="cls-4" x="2512.89" y="-609.34" width="10.9" height="1652.87"/><rect class="cls-5" x="2524.11" y="-609.34" width="10.9" height="1652.87"/><rect class="cls-4" x="2535.34" y="-609.34" width="10.9" height="1652.87"/><rect class="cls-5" x="2546.57" y="-609.34" width="10.9" height="1652.87"/><rect class="cls-4" x="2557.8" y="-609.34" width="10.9" height="1652.87"/><path class="cls-4" d="M2430.55,913.62V902.49a137.81,137.81,0,0,1,77.38,23.8,140.35,140.35,0,0,1,38.32,38.83,141.61,141.61,0,0,1,20.84,51,143.39,143.39,0,0,1,0,54.88,141.34,141.34,0,0,1-38.12,72.29,139.38,139.38,0,0,1-45.12,30.58,137.71,137.71,0,0,1-130.69-13.07,140.64,140.64,0,0,1-38.31-38.82,141.78,141.78,0,0,1,38.31-195.66,137.76,137.76,0,0,1,77.39-23.8v11.13a126.78,126.78,0,0,0-71.28,21.92,129.35,129.35,0,0,0-35.3,35.77,131.14,131.14,0,0,0,0,144.45,129.35,129.35,0,0,0,35.3,35.77,126.91,126.91,0,0,0,142.56,0,129.52,129.52,0,0,0,19.38-16.13,130.31,130.31,0,0,0,35.11-66.58,132.23,132.23,0,0,0,0-50.57,130.27,130.27,0,0,0-35.11-66.58,128.28,128.28,0,0,0-41.57-28.17,126.55,126.55,0,0,0-49.09-9.88Z"/><path class="cls-5" d="M2430.55,925.07V914a126.6,126.6,0,0,1,71.1,21.86A128.86,128.86,0,0,1,2521,951.9a130.26,130.26,0,0,1,35,66.41,131.56,131.56,0,0,1,0,50.44,129.78,129.78,0,0,1-35,66.41,128,128,0,0,1-41.46,28.1,126.49,126.49,0,0,1-120.07-12,128.26,128.26,0,0,1-19.33-16.09,129.63,129.63,0,0,1-27.73-42,130.84,130.84,0,0,1,11.85-121.66,129.07,129.07,0,0,1,35.21-35.68,126.28,126.28,0,0,1,71.1-21.86v11.12a115.87,115.87,0,0,0-22.76,2.26,114.62,114.62,0,0,0-22,6.75,116.28,116.28,0,0,0-20.23,11,118.14,118.14,0,0,0-32.2,32.63,118.87,118.87,0,0,0-17.49,42.79,120.34,120.34,0,0,0,0,46.12,118.31,118.31,0,0,0,49.69,75.42,115.69,115.69,0,0,0,130,0,117.88,117.88,0,0,0,17.68-14.71,119.36,119.36,0,0,0,34.24-83.77,120.52,120.52,0,0,0-2.23-23.06,118.43,118.43,0,0,0-49.69-75.42,116.28,116.28,0,0,0-20.23-11,115.64,115.64,0,0,0-44.76-9Z"/><path class="cls-4" d="M2430.55,936.52V925.4a115.37,115.37,0,0,1,64.81,19.93,118.39,118.39,0,0,1,49.55,75.21,120.2,120.2,0,0,1,0,46,118,118,0,0,1-49.55,75.21,115.68,115.68,0,0,1-147.25-14.67,118.47,118.47,0,0,1-31.92-60.54,119.67,119.67,0,0,1,0-46A118.34,118.34,0,0,1,2348.11,960a117.33,117.33,0,0,1,17.63-14.67,115.6,115.6,0,0,1,20.17-10.94,115,115,0,0,1,44.64-9v11.12a104.47,104.47,0,0,0-58.7,18.05,106.45,106.45,0,0,0-16,13.29,107.8,107.8,0,0,0,0,151.34,105.86,105.86,0,0,0,16,13.29,104.39,104.39,0,0,0,117.4,0,105.78,105.78,0,0,0,16-13.29,107.4,107.4,0,0,0,28.92-54.83,108.46,108.46,0,0,0,0-41.67,106.92,106.92,0,0,0-44.89-68.13,105.4,105.4,0,0,0-18.27-9.91,104.33,104.33,0,0,0-40.43-8.14Z"/><path class="cls-5" d="M2430.55,948V936.85a105,105,0,0,1,20.5,2,104.37,104.37,0,0,1,38,16,106.88,106.88,0,0,1,44.75,67.91,108.37,108.37,0,0,1,0,41.55,106.62,106.62,0,0,1-44.75,67.91,104.14,104.14,0,0,1-117,0,106.89,106.89,0,0,1-38.76-47.84,108.08,108.08,0,0,1,0-81.69A106.38,106.38,0,0,1,2372,954.85a103.94,103.94,0,0,1,58.52-18V948a94,94,0,0,0-18.37,1.83,92.45,92.45,0,0,0-17.73,5.44,93.59,93.59,0,0,0-16.32,8.85,95.7,95.7,0,0,0-40.09,60.83,97.16,97.16,0,0,0,0,37.23,96.24,96.24,0,0,0,5.37,18,94.85,94.85,0,0,0,51,51.71A93.26,93.26,0,0,0,2483,1123a95.63,95.63,0,0,0,34.72-42.86,96.27,96.27,0,0,0,5.38-18,97.69,97.69,0,0,0,0-37.23,95.86,95.86,0,0,0-25.83-49A94.84,94.84,0,0,0,2483,964.09,93.33,93.33,0,0,0,2430.55,948Z"/><path class="cls-4" d="M2430.55,959.43V948.3a94.27,94.27,0,0,1,18.31,1.82,93,93,0,0,1,17.67,5.42A94,94,0,0,1,2497,976.2a95.67,95.67,0,0,1,25.74,48.78,97,97,0,0,1,0,37.1,95.52,95.52,0,0,1-25.74,48.79,93.52,93.52,0,0,1-144.58-14.41,96.09,96.09,0,0,1,0-105.86,94.26,94.26,0,0,1,42.15-35.06,92.75,92.75,0,0,1,17.67-5.42,94.19,94.19,0,0,1,18.31-1.82v11.13a82.56,82.56,0,0,0-58.69,24.63,84.26,84.26,0,0,0-22.73,43.08,84.69,84.69,0,0,0,12.41,63.13,83.35,83.35,0,0,0,37.23,31,82.21,82.21,0,0,0,63.55,0,82.71,82.71,0,0,0,14.36-7.79,84.34,84.34,0,0,0,35.29-53.53,85.85,85.85,0,0,0,0-32.79,84,84,0,0,0-35.29-53.53,81.89,81.89,0,0,0-46.13-14.18Z"/><path class="cls-5" d="M2430.55,970.88V959.76a81.63,81.63,0,0,1,45.95,14.12,84,84,0,0,1,35.15,53.32,85.18,85.18,0,0,1,0,32.66,83.27,83.27,0,0,1-49.45,61.08,80.66,80.66,0,0,1-15.54,4.77,82,82,0,0,1-32.23,0,80.57,80.57,0,0,1-15.53-4.77,82.66,82.66,0,0,1-14.3-7.75,84,84,0,0,1-35.15-53.33,85.18,85.18,0,0,1,0-32.66,83.73,83.73,0,0,1,35.15-53.32,81.5,81.5,0,0,1,46-14.12v11.12a70.93,70.93,0,0,0-27.45,5.52,71.88,71.88,0,0,0-23.25,15.76,73.26,73.26,0,0,0,0,102.75,71.88,71.88,0,0,0,23.25,15.76,70.72,70.72,0,0,0,13.46,4.13,71,71,0,0,0,28,0,70.28,70.28,0,0,0,13.46-4.13,71.82,71.82,0,0,0,23.26-15.76,72.94,72.94,0,0,0,19.63-37.21,74,74,0,0,0,0-28.34,72.88,72.88,0,0,0-19.63-37.2A71.82,71.82,0,0,0,2458,976.4a70.93,70.93,0,0,0-27.44-5.52Z"/><path class="cls-4" d="M2430.55,982.33V971.21a70.55,70.55,0,0,1,27.32,5.49A71.58,71.58,0,0,1,2481,992.39a72.78,72.78,0,0,1,20.9,51.14,73,73,0,0,1-5.42,27.69,72.68,72.68,0,0,1-15.48,23.45,71.26,71.26,0,0,1-23.15,15.69,70.12,70.12,0,0,1-13.4,4.12,70.9,70.9,0,0,1-27.84,0,69.9,69.9,0,0,1-13.4-4.12,71.26,71.26,0,0,1-23.15-15.69,72.49,72.49,0,0,1-19.54-37,73.29,73.29,0,0,1,0-28.21,72.12,72.12,0,0,1,42.69-52.73,70.55,70.55,0,0,1,27.32-5.49v11.12a60.51,60.51,0,0,0-11.79,1.17,59.12,59.12,0,0,0-11.33,3.48,60.54,60.54,0,0,0-19.59,13.28,61.53,61.53,0,0,0-16.54,31.32,62.66,62.66,0,0,0,0,23.9,61.07,61.07,0,0,0,36.13,44.61,59.09,59.09,0,0,0,11.33,3.47,60,60,0,0,0,23.58,0,59,59,0,0,0,11.32-3.47,60.63,60.63,0,0,0,19.6-13.28,61.55,61.55,0,0,0,13.1-19.85,60.41,60.41,0,0,0,3.43-11.48,62.13,62.13,0,0,0,0-23.9,60.53,60.53,0,0,0-3.43-11.47,61.44,61.44,0,0,0-13.1-19.85,60.47,60.47,0,0,0-19.6-13.28,59,59,0,0,0-11.32-3.48A60.59,60.59,0,0,0,2430.55,982.33Z"/><path class="cls-5" d="M2430.55,993.79V982.66a60,60,0,0,1,11.73,1.17,59.3,59.3,0,0,1,11.26,3.45,60.34,60.34,0,0,1,19.49,13.21,61.25,61.25,0,0,1,13,19.75,60.19,60.19,0,0,1,3.41,11.41,62,62,0,0,1,0,23.77,60.7,60.7,0,0,1-35.93,44.36,58.62,58.62,0,0,1-11.26,3.46,59.89,59.89,0,0,1-23.46,0,58.62,58.62,0,0,1-11.26-3.46,60.18,60.18,0,0,1-19.49-13.21,61.14,61.14,0,0,1-16.45-31.15,62.52,62.52,0,0,1,0-23.77,61.2,61.2,0,0,1,16.45-31.16,60.34,60.34,0,0,1,19.49-13.21,59.3,59.3,0,0,1,11.26-3.45,60,60,0,0,1,11.73-1.17v11.13a48.35,48.35,0,0,0-18.79,3.77,49.19,49.19,0,0,0-15.93,10.8,49.86,49.86,0,0,0-10.65,16.14,50.15,50.15,0,0,0,10.65,54.21,49.35,49.35,0,0,0,15.93,10.8,48.69,48.69,0,0,0,37.57,0,49.13,49.13,0,0,0,15.93-10.8,50.12,50.12,0,0,0,0-70.35,49,49,0,0,0-15.93-10.8A48.27,48.27,0,0,0,2430.55,993.79Z"/><path class="cls-4" d="M2430.55,1005.24V994.12a48.23,48.23,0,0,1,18.66,3.74,48.85,48.85,0,0,1,15.82,10.73,49.8,49.8,0,0,1,0,69.89,48.82,48.82,0,0,1-15.82,10.72,48.3,48.3,0,0,1-37.32,0,48.86,48.86,0,0,1-15.83-10.72,49.82,49.82,0,0,1,0-69.89,48.89,48.89,0,0,1,15.83-10.73,48.19,48.19,0,0,1,18.66-3.74v11.12a37.08,37.08,0,0,0-14.46,2.9,37.72,37.72,0,0,0-12.26,8.31,38.58,38.58,0,0,0,0,54.16,37.91,37.91,0,0,0,12.26,8.32,37.5,37.5,0,0,0,28.92,0,38.26,38.26,0,0,0,20.47-20.75,38.58,38.58,0,0,0-8.21-41.73,37.83,37.83,0,0,0-12.26-8.31A37.12,37.12,0,0,0,2430.55,1005.24Z"/></svg>