<svg id="Layer_1" data-name="Layer 1" xmlns="http://www.w3.org/2000/svg" viewBox="0 0 278.38 1077.94"><defs><style>.cls-1{fill:none;}.cls-2{fill:#29235c;}.cls-3{fill:#fff;}</style></defs><rect class="cls-1" x="176.62" y="-720.49" width="145.64" height="1652.87"/><rect class="cls-2" x="176.62" y="-720.49" width="10.9" height="1652.87"/><rect class="cls-3" x="187.84" y="-720.49" width="10.9" height="1652.87"/><rect class="cls-2" x="199.07" y="-720.49" width="10.9" height="1652.87"/><rect class="cls-3" x="210.3" y="-720.49" width="10.9" height="1652.87"/><rect class="cls-2" x="221.53" y="-720.49" width="10.9" height="1652.87"/><rect class="cls-3" x="232.76" y="-720.49" width="10.9" height="1652.87"/><rect class="cls-2" x="243.98" y="-720.49" width="10.9" height="1652.87"/><rect class="cls-3" x="255.21" y="-720.49" width="10.9" height="1652.87"/><rect class="cls-2" x="266.44" y="-720.49" width="10.9" height="1652.87"/><path class="cls-2" d="M139.19,802.47V791.34a137.77,137.77,0,0,1,77.39,23.81,141,141,0,0,1,51.21,63.23,141.92,141.92,0,0,1,7.94,26.56,143.39,143.39,0,0,1,0,54.88,141.34,141.34,0,0,1-38.12,72.29,139.09,139.09,0,0,1-45.12,30.58A137.71,137.71,0,0,1,61.8,1049.62a140.64,140.64,0,0,1-38.31-38.82,141.56,141.56,0,0,1-20.84-51,143.39,143.39,0,0,1,0-54.88,141.48,141.48,0,0,1,38.12-72.29,140.33,140.33,0,0,1,21-17.5,137.69,137.69,0,0,1,77.39-23.81v11.13a126.78,126.78,0,0,0-71.28,21.92,128.32,128.32,0,0,0-19.38,16.13A130.31,130.31,0,0,0,13.42,907.1a130.7,130.7,0,0,0,35.11,117.15,129.52,129.52,0,0,0,19.38,16.13,126.91,126.91,0,0,0,142.56,0,129.35,129.35,0,0,0,35.3-35.77,130.9,130.9,0,0,0-15.92-164.09,128.28,128.28,0,0,0-41.57-28.17,126.55,126.55,0,0,0-49.09-9.88Z"/><path class="cls-3" d="M139.19,813.92V802.8a126.6,126.6,0,0,1,71.1,21.86,129.56,129.56,0,0,1,47.06,58.11A130.52,130.52,0,0,1,229.62,1024a128.79,128.79,0,0,1-19.33,16.08,126.49,126.49,0,0,1-142.2,0A128.79,128.79,0,0,1,48.76,1024a130,130,0,0,1-35-66.42A131.27,131.27,0,0,1,21,882.77a129.32,129.32,0,0,1,47.06-58.11,127.87,127.87,0,0,1,22.13-12,125.95,125.95,0,0,1,49-9.86v11.12a116.34,116.34,0,0,0-82.67,34.7,118.79,118.79,0,0,0-32,60.7,120.34,120.34,0,0,0,0,46.12,118.31,118.31,0,0,0,49.69,75.42,115.69,115.69,0,0,0,130,0,117.38,117.38,0,0,0,17.68-14.71,119.36,119.36,0,0,0,34.24-83.77,120.52,120.52,0,0,0-2.23-23.06,118.71,118.71,0,0,0-32-60.7A117.17,117.17,0,0,0,184,822.93a115.64,115.64,0,0,0-44.76-9Z"/><path class="cls-2" d="M139.19,825.37V814.25A115.37,115.37,0,0,1,204,834.18a117.33,117.33,0,0,1,17.63,14.67,119.05,119.05,0,0,1,0,167.07A117.33,117.33,0,0,1,204,1030.59a115.35,115.35,0,0,1-129.62,0,117.33,117.33,0,0,1-17.63-14.67,119,119,0,0,1,0-167.07,117.33,117.33,0,0,1,17.63-14.67,115.25,115.25,0,0,1,64.81-19.93v11.12a104.47,104.47,0,0,0-58.7,18,107.19,107.19,0,0,0-38.88,48,108.37,108.37,0,0,0,0,81.94,106.67,106.67,0,0,0,38.88,48,104.39,104.39,0,0,0,117.4,0,106.35,106.35,0,0,0,16-13.29,107.4,107.4,0,0,0,28.92-54.83,108.42,108.42,0,0,0-6-61.81,106.67,106.67,0,0,0-38.88-48,105.4,105.4,0,0,0-18.27-9.91,104.33,104.33,0,0,0-40.43-8.14Z"/><path class="cls-3" d="M139.19,836.82V825.7a105,105,0,0,1,20.5,2,104.37,104.37,0,0,1,38,16,106.59,106.59,0,0,1,38.75,47.84,107.08,107.08,0,0,1,6,20.07,108.9,108.9,0,0,1,0,41.55,106.54,106.54,0,0,1-44.76,67.91,104.14,104.14,0,0,1-117,0,107,107,0,0,1-44.76-67.91,108.9,108.9,0,0,1,0-41.55A107.08,107.08,0,0,1,64.74,857,105.7,105.7,0,0,1,80.67,843.7a103.94,103.94,0,0,1,58.52-18v11.12a94,94,0,0,0-18.37,1.83,92.45,92.45,0,0,0-17.73,5.44,93.59,93.59,0,0,0-16.32,8.85,95.85,95.85,0,0,0-40.09,60.83,97.16,97.16,0,0,0,0,37.23,96.18,96.18,0,0,0,14.11,34.5,95.57,95.57,0,0,0,26,26.33,94.26,94.26,0,0,0,16.32,8.85,93.31,93.31,0,0,0,72.2,0A94,94,0,0,0,205.87,1000a95.3,95.3,0,0,0,11.72-14.45A95.7,95.7,0,0,0,231.7,951a97.16,97.16,0,0,0,0-37.23,95.86,95.86,0,0,0-25.83-49,95.26,95.26,0,0,0-14.26-11.87,93.59,93.59,0,0,0-16.32-8.85,92.45,92.45,0,0,0-17.73-5.44A94,94,0,0,0,139.19,836.82Z"/><path class="cls-2" d="M139.19,848.28V837.15A94.27,94.27,0,0,1,157.5,839a92.75,92.75,0,0,1,17.67,5.42,94,94,0,0,1,30.47,20.66,95.67,95.67,0,0,1,25.74,48.78,97,97,0,0,1,0,37.1,95.52,95.52,0,0,1-25.74,48.79,94.09,94.09,0,0,1-14.22,11.83,92.92,92.92,0,0,1-104.46,0,94.09,94.09,0,0,1-14.22-11.83A95.63,95.63,0,0,1,47,950.93a97,97,0,0,1,0-37.1,95.27,95.27,0,0,1,40-60.62,94.16,94.16,0,0,1,16.25-8.82A92.75,92.75,0,0,1,120.88,839a94.27,94.27,0,0,1,18.31-1.82v11.13a82,82,0,0,0-46.13,14.18A84.34,84.34,0,0,0,57.77,916a85.11,85.11,0,0,0,4.73,48.59,84.12,84.12,0,0,0,7.68,14.54,83.29,83.29,0,0,0,37.24,31,82.19,82.19,0,0,0,63.54,0,82.71,82.71,0,0,0,14.36-7.79,84.34,84.34,0,0,0,35.29-53.53,85.85,85.85,0,0,0,0-32.79,84,84,0,0,0-35.29-53.53,81.89,81.89,0,0,0-46.13-14.18Z"/><path class="cls-3" d="M139.19,859.73V848.61A82,82,0,0,1,170.84,855a82.71,82.71,0,0,1,14.3,7.76,84,84,0,0,1,35.15,53.32,85.18,85.18,0,0,1,0,32.66A83.84,83.84,0,0,1,185.14,1002a82,82,0,0,1-14.3,7.75,80.66,80.66,0,0,1-15.54,4.77,81.9,81.9,0,0,1-32.22,0,80.66,80.66,0,0,1-15.54-4.77,82,82,0,0,1-14.3-7.75,84,84,0,0,1-35.15-53.33,85.18,85.18,0,0,1,0-32.66,83.73,83.73,0,0,1,35.15-53.32,82.71,82.71,0,0,1,14.3-7.76,82,82,0,0,1,31.65-6.36v11.12a70.93,70.93,0,0,0-27.44,5.52A71.82,71.82,0,0,0,88.49,881a72.88,72.88,0,0,0-19.63,37.2,74,74,0,0,0,0,28.34,72.94,72.94,0,0,0,19.63,37.21,71.82,71.82,0,0,0,23.26,15.76,70.28,70.28,0,0,0,13.46,4.13,71,71,0,0,0,28,0,70.59,70.59,0,0,0,13.47-4.13,71.88,71.88,0,0,0,23.25-15.76,72.94,72.94,0,0,0,19.63-37.21,74,74,0,0,0,0-28.34A72.88,72.88,0,0,0,189.89,881a71.88,71.88,0,0,0-23.25-15.76,71,71,0,0,0-27.45-5.52Z"/><path class="cls-2" d="M139.19,871.18V860.06a70.55,70.55,0,0,1,27.32,5.49,71.58,71.58,0,0,1,23.15,15.69,72.56,72.56,0,0,1,19.54,37,73.82,73.82,0,0,1,0,28.21,72.49,72.49,0,0,1-19.54,37,71.26,71.26,0,0,1-23.15,15.69,69.9,69.9,0,0,1-13.4,4.12,70.9,70.9,0,0,1-27.84,0,69.9,69.9,0,0,1-13.4-4.12,71.26,71.26,0,0,1-23.15-15.69,72.49,72.49,0,0,1-19.54-37,73.82,73.82,0,0,1,0-28.21,72.12,72.12,0,0,1,42.69-52.73,70.55,70.55,0,0,1,27.32-5.49v11.12a60.59,60.59,0,0,0-11.79,1.17,59.12,59.12,0,0,0-11.33,3.48,60.54,60.54,0,0,0-19.59,13.28A61.44,61.44,0,0,0,83.38,909,60.41,60.41,0,0,0,80,920.44a62.08,62.08,0,0,0,0,23.89,60.41,60.41,0,0,0,3.43,11.48,61.55,61.55,0,0,0,13.1,19.85,60.69,60.69,0,0,0,19.59,13.28,59.09,59.09,0,0,0,11.33,3.47,60,60,0,0,0,23.58,0,59.09,59.09,0,0,0,11.33-3.47,60.69,60.69,0,0,0,19.59-13.28A61.55,61.55,0,0,0,195,955.81a60.41,60.41,0,0,0,3.43-11.48,62.08,62.08,0,0,0,0-23.89A60.41,60.41,0,0,0,195,909a61.44,61.44,0,0,0-13.1-19.85,60.54,60.54,0,0,0-19.59-13.28A59.12,59.12,0,0,0,151,872.35,60.59,60.59,0,0,0,139.19,871.18Z"/><path class="cls-3" d="M139.19,882.64V871.51a60,60,0,0,1,11.73,1.17,59.3,59.3,0,0,1,11.26,3.45,60.34,60.34,0,0,1,19.49,13.21,61.09,61.09,0,0,1,13,19.75,60.19,60.19,0,0,1,3.41,11.41,62,62,0,0,1,0,23.77,60.7,60.7,0,0,1-35.93,44.36,58.62,58.62,0,0,1-11.26,3.46,59.89,59.89,0,0,1-23.46,0,58.62,58.62,0,0,1-11.26-3.46,60.18,60.18,0,0,1-19.49-13.21A61.54,61.54,0,0,1,80.27,920.5a60.19,60.19,0,0,1,3.41-11.41,61.09,61.09,0,0,1,13-19.75,60.34,60.34,0,0,1,19.49-13.21,59.3,59.3,0,0,1,11.26-3.45,60,60,0,0,1,11.73-1.17v11.13a48.35,48.35,0,0,0-18.79,3.77,49,49,0,0,0-15.92,10.8A49.89,49.89,0,0,0,90.1,932.38a49.89,49.89,0,0,0,14.38,35.18,49.2,49.2,0,0,0,15.92,10.8,48.71,48.71,0,0,0,37.58,0,49.35,49.35,0,0,0,15.93-10.8,50.15,50.15,0,0,0,0-70.35A49.19,49.19,0,0,0,158,886.41,48.35,48.35,0,0,0,139.19,882.64Z"/><path class="cls-2" d="M139.19,894.09V883a48.19,48.19,0,0,1,18.66,3.74,48.74,48.74,0,0,1,15.82,10.73,49.8,49.8,0,0,1,0,69.89,48.71,48.71,0,0,1-15.82,10.72,48.3,48.3,0,0,1-37.32,0,48.71,48.71,0,0,1-15.82-10.72,49.79,49.79,0,0,1,0-69.89,48.74,48.74,0,0,1,15.82-10.73A48.19,48.19,0,0,1,139.19,883v11.12a37.12,37.12,0,0,0-14.46,2.9,37.7,37.7,0,0,0-12.26,8.32,38.58,38.58,0,0,0,0,54.15,38,38,0,0,0,12.26,8.32,37.5,37.5,0,0,0,28.92,0A38.26,38.26,0,0,0,174.12,947a38.55,38.55,0,0,0-8.21-41.72A37.7,37.7,0,0,0,153.65,897,37.08,37.08,0,0,0,139.19,894.09Z"/></svg>