<svg id="Layer_1" data-name="Layer 1" xmlns="http://www.w3.org/2000/svg" viewBox="0 0 303.24 69.54"><defs><style>.cls-1{fill:none;}.cls-2{fill:#29235c;}.cls-3{fill:#fff;}</style></defs><rect class="cls-1" x="23.12" y="43.34" width="244.39" height="35.54"/><polygon class="cls-2" points="267.22 46 267.22 43.34 37.03 43.34 33.17 46.08 267.22 46"/><polygon class="cls-3" points="267.97 48.74 267.97 46.08 33.17 46.08 29.25 48.82 267.97 48.74"/><polygon class="cls-2" points="267.51 51.48 267.51 48.82 29.25 48.82 25.43 51.48 267.51 51.48"/><polygon class="cls-3" points="267.51 54.22 267.51 51.48 25.43 51.48 21.33 54.3 267.51 54.22"/><polygon class="cls-2" points="267.51 56.96 267.51 54.3 21.33 54.3 17.37 57.04 267.51 56.96"/><polygon class="cls-3" points="267.51 59.7 267.51 57.04 17.37 57.04 13.52 59.78 267.51 59.7"/><polygon class="cls-2" points="267.51 62.44 267.51 59.78 13.52 59.78 9.64 62.52 267.51 62.44"/><polygon class="cls-3" points="267.51 65.18 267.51 62.52 9.64 62.52 5.64 65.26 267.51 65.18"/><polygon class="cls-2" points="267.51 67.92 267.51 65.26 5.64 65.26 1.75 67.92 267.51 67.92"/><path class="cls-2" d="M235.82,34.21H233.1a33.62,33.62,0,0,0,5.81,18.88,34.54,34.54,0,0,0,4.28,5.14,34.07,34.07,0,0,0,5.2,4.21,34.57,34.57,0,0,0,19.13,5.73,34.54,34.54,0,0,0,13.18-2.58,34.61,34.61,0,0,0,11.16-7.36,34.14,34.14,0,0,0,7.46-11,32.75,32.75,0,0,0,2-6.39,33.43,33.43,0,0,0,0-13.22,32.64,32.64,0,0,0-2-6.4A34.45,34.45,0,0,0,274.22.89a34.8,34.8,0,0,0-13.39,0,34.13,34.13,0,0,0-6.49,1.94,34.84,34.84,0,0,0-6,3.14,34.14,34.14,0,0,0-5.2,4.22,35,35,0,0,0-4.28,5.13,34.44,34.44,0,0,0-3.19,5.88,33.79,33.79,0,0,0-2.62,13h2.72a31,31,0,0,1,5.35-17.4,31.73,31.73,0,0,1,3.93-4.73,32,32,0,0,1,44.84,0,32.42,32.42,0,0,1,3.94,4.73,31,31,0,0,1,0,34.79,31.9,31.9,0,0,1-3.94,4.73,31.45,31.45,0,0,1-4.79,3.89,32.3,32.3,0,0,1-5.49,2.89,32,32,0,0,1-12.14,2.39,32,32,0,0,1-12.14-2.39,31.66,31.66,0,0,1-10.28-6.78,30.94,30.94,0,0,1-9.28-22.12Z"/><path class="cls-3" d="M238.61,34.21H235.9a31.15,31.15,0,0,0,.6,6.07,30.5,30.5,0,0,0,1.81,5.88,31,31,0,0,0,2.93,5.4,31.85,31.85,0,0,0,26.28,13.86A32.08,32.08,0,0,0,279.63,63a31.06,31.06,0,0,0,5.47-2.89,31.28,31.28,0,0,0,11.64-14A31.23,31.23,0,0,0,279.63,5.38a31.84,31.84,0,0,0-5.95-1.79,32.4,32.4,0,0,0-12.31,0,32,32,0,0,0-11.43,4.68,31.21,31.21,0,0,0-8.7,8.59,30.63,30.63,0,0,0-2.93,5.4,30.29,30.29,0,0,0-1.81,5.88,31.08,31.08,0,0,0-.6,6.07h2.71a29,29,0,0,1,.55-5.56,28.34,28.34,0,0,1,4.33-10.3A29.09,29.09,0,0,1,247.08,14a29.8,29.8,0,0,1,4.37-3.54,29.1,29.1,0,0,1,5-2.64,29.23,29.23,0,0,1,22.14,0A29,29,0,0,1,288,14a28.49,28.49,0,0,1,3.59,4.32,28.34,28.34,0,0,1,4.33,10.3,28.47,28.47,0,0,1-12.29,29.27,29.25,29.25,0,0,1-16.07,4.82,28.86,28.86,0,0,1-5.62-.55,28.63,28.63,0,0,1-10.45-4.27,28.55,28.55,0,0,1-4.37-3.54,28.35,28.35,0,0,1-7.92-14.62A28.85,28.85,0,0,1,238.61,34.21Z"/><path class="cls-2" d="M241.41,34.21h-2.72a28.83,28.83,0,0,0,.55,5.54,27.83,27.83,0,0,0,1.65,5.35A27.51,27.51,0,0,0,243.56,50a28.77,28.77,0,0,0,12.92,10.47,29.09,29.09,0,0,0,22.08,0,29,29,0,0,0,5-2.63,29.65,29.65,0,0,0,4.36-3.53A29,29,0,0,0,291.49,50a28.16,28.16,0,0,0,2.67-4.92,28.52,28.52,0,0,0,1.64-5.35,28.18,28.18,0,0,0,0-11.08,28.21,28.21,0,0,0-4.31-10.28A28.92,28.92,0,0,0,278.56,7.92a29.26,29.26,0,0,0-22.08,0,28.92,28.92,0,0,0-5,2.64,28.53,28.53,0,0,0-4.36,3.53,28.87,28.87,0,0,0-3.58,4.3,28.46,28.46,0,0,0-4.32,10.28,28.75,28.75,0,0,0-.55,5.54h2.72a25,25,0,0,1,.5-5,25.63,25.63,0,0,1,1.48-4.85,26,26,0,0,1,2.42-4.46A25.69,25.69,0,0,1,249.06,16a25.92,25.92,0,0,1,8.46-5.59,26.55,26.55,0,0,1,15.09-1.47A26.45,26.45,0,0,1,282,12.78,26.51,26.51,0,0,1,286,16a25.73,25.73,0,0,1,5.66,8.35,25,25,0,0,1,1.49,4.85,25.45,25.45,0,0,1,0,10,25.07,25.07,0,0,1-1.49,4.84,25.61,25.61,0,0,1-2.42,4.46A26.29,26.29,0,0,1,253,55.63a26.07,26.07,0,0,1-7.2-7.1,25.33,25.33,0,0,1-3.9-9.3A25.06,25.06,0,0,1,241.41,34.21Z"/><path class="cls-3" d="M244.2,34.21h-2.71a25.53,25.53,0,0,0,2,9.83,25.17,25.17,0,0,0,2.41,4.45,25.58,25.58,0,0,0,3.23,3.88,26.07,26.07,0,0,0,13.34,7,26.47,26.47,0,0,0,10.14,0,26.82,26.82,0,0,0,4.9-1.46,26.21,26.21,0,0,0,8.44-5.57,25.56,25.56,0,0,0,3.23-3.89A25.89,25.89,0,0,0,291.58,44a25.56,25.56,0,0,0-5.65-28A25.81,25.81,0,0,0,282,12.85a26.48,26.48,0,0,0-4.5-2.38A25.34,25.34,0,0,0,272.59,9a26.47,26.47,0,0,0-10.14,0,25.24,25.24,0,0,0-4.89,1.46A26.11,26.11,0,0,0,249.11,16a26.16,26.16,0,0,0-3.23,3.89,25.5,25.5,0,0,0-4.39,14.28h2.71a22.54,22.54,0,0,1,.45-4.48A21.9,21.9,0,0,1,246,25.4a22.19,22.19,0,0,1,2.16-4A22.92,22.92,0,0,1,251,17.94a23.31,23.31,0,0,1,7.57-5,23.48,23.48,0,0,1,17.85,0,23.41,23.41,0,0,1,7.56,5,23,23,0,0,1,5.06,7.46,22.88,22.88,0,0,1,1.33,13.29A23.55,23.55,0,0,1,289.07,43,23,23,0,0,1,284,50.48a23.73,23.73,0,0,1-3.53,2.86,23.57,23.57,0,0,1-25.92,0A23.73,23.73,0,0,1,251,50.48,22.92,22.92,0,0,1,248.14,47,22.54,22.54,0,0,1,246,43a22.1,22.1,0,0,1-1.33-4.33A22.62,22.62,0,0,1,244.2,34.21Z"/><path class="cls-2" d="M247,34.21h-2.72A22.66,22.66,0,0,0,248.2,47a22.94,22.94,0,0,0,2.89,3.47,22.5,22.5,0,0,0,3.52,2.85,23.06,23.06,0,0,0,4,2.13A23.39,23.39,0,0,0,263,56.7a23.49,23.49,0,0,0,9.05,0,23.85,23.85,0,0,0,4.37-1.3,23.32,23.32,0,0,0,7.53-5A22.93,22.93,0,0,0,289,43a22.61,22.61,0,0,0,1.33-4.31,22.93,22.93,0,0,0,0-8.94,22.94,22.94,0,0,0-3.48-8.28A22.27,22.27,0,0,0,284,18a23.51,23.51,0,0,0-3.51-2.85,23.5,23.5,0,0,0-8.39-3.43,23.49,23.49,0,0,0-9.05,0A22.69,22.69,0,0,0,258.63,13a23.27,23.27,0,0,0-7.54,5,23.44,23.44,0,0,0-2.89,3.47,23.06,23.06,0,0,0-2.15,4,22.9,22.9,0,0,0-1.77,8.78H247a20.19,20.19,0,0,1,.39-3.95A20,20,0,0,1,250.46,23,20.2,20.2,0,0,1,253,19.89a20.4,20.4,0,0,1,3.11-2.52,20.06,20.06,0,0,1,3.55-1.88,20.85,20.85,0,0,1,15.71,0A20.57,20.57,0,0,1,284.59,23a21.14,21.14,0,0,1,1.9,3.5,20.42,20.42,0,0,1,1.16,3.81,19.7,19.7,0,0,1,0,7.9,20.1,20.1,0,0,1-1.16,3.8,20.37,20.37,0,0,1-7.56,9.09,20.05,20.05,0,0,1-3.55,1.87,20.68,20.68,0,0,1-3.86,1.16,21.24,21.24,0,0,1-8,0,20.58,20.58,0,0,1-3.85-1.16,19.38,19.38,0,0,1-3.55-1.87,20.35,20.35,0,0,1-5.66-5.59,20.06,20.06,0,0,1-3.07-7.3A20.27,20.27,0,0,1,247,34.21Z"/><path class="cls-3" d="M249.79,34.21h-2.71a20,20,0,0,0,1.55,7.72,20.34,20.34,0,0,0,1.9,3.49A20.5,20.5,0,0,0,256.16,51a20.58,20.58,0,0,0,7.38,3,20.68,20.68,0,0,0,11.81-1.15A20.19,20.19,0,0,0,278.88,51a19.68,19.68,0,0,0,3.1-2.51,20.06,20.06,0,0,0,2.54-3,20.29,20.29,0,0,0,1.89-3.49,19.33,19.33,0,0,0,1.17-3.79,20,20,0,0,0,0-7.86,19.63,19.63,0,0,0-1.17-3.8A19.84,19.84,0,0,0,284.52,23,20.13,20.13,0,0,0,282,19.94a20.87,20.87,0,0,0-3.1-2.51,20.65,20.65,0,0,0-7.37-3,20.55,20.55,0,0,0-8,0,19.54,19.54,0,0,0-3.84,1.15,20.23,20.23,0,0,0-3.54,1.86,20.79,20.79,0,0,0-3.09,2.51A19.56,19.56,0,0,0,250.53,23a19.89,19.89,0,0,0-1.9,3.48,20.32,20.32,0,0,0-1.16,3.8,19.92,19.92,0,0,0-.39,3.93h2.71a17.68,17.68,0,0,1,.34-3.41,17.88,17.88,0,0,1,1-3.29A17.43,17.43,0,0,1,255,21.84a17.79,17.79,0,0,1,5.75-3.8,18.05,18.05,0,0,1,13.57,0,17.9,17.9,0,0,1,5.75,3.8,17.25,17.25,0,0,1,3.84,5.67,16.47,16.47,0,0,1,1,3.29,17.27,17.27,0,0,1,0,6.82,16.67,16.67,0,0,1-1,3.29,17.46,17.46,0,0,1-3.84,5.67,17.9,17.9,0,0,1-5.75,3.8,18,18,0,0,1-13.57,0,17.72,17.72,0,0,1-9.6-9.47,18.12,18.12,0,0,1-1-3.29A17.76,17.76,0,0,1,249.79,34.21Z"/><path class="cls-2" d="M252.59,34.21h-2.72a17.66,17.66,0,0,0,.34,3.4,17.36,17.36,0,0,0,1,3.27,17.6,17.6,0,0,0,9.56,9.42,17.28,17.28,0,0,0,3.31,1,17.57,17.57,0,0,0,6.88,0,17.38,17.38,0,0,0,3.32-1A17.55,17.55,0,0,0,280,46.52a17.16,17.16,0,0,0,4.83-8.91,17.17,17.17,0,0,0,0-6.8A17.22,17.22,0,0,0,280,21.89a17.88,17.88,0,0,0-5.72-3.78,17.88,17.88,0,0,0-13.51,0A17.92,17.92,0,0,0,255,21.89a17.56,17.56,0,0,0-3.83,5.65,16.93,16.93,0,0,0-1,3.27,17.66,17.66,0,0,0-.34,3.4h2.72a14.35,14.35,0,0,1,1.13-5.64A14.82,14.82,0,0,1,257,23.79a15,15,0,0,1,21.12,0,14.51,14.51,0,0,1,3.24,4.78,14,14,0,0,1,.85,2.76,14.45,14.45,0,0,1,0,5.76,14.2,14.2,0,0,1-.85,2.76,14.62,14.62,0,0,1-3.24,4.78,15,15,0,0,1-7.64,4,15.31,15.31,0,0,1-5.83,0,14.79,14.79,0,0,1-11.74-11.58A14.72,14.72,0,0,1,252.59,34.21Z"/><path class="cls-3" d="M255.38,34.21h-2.71a14.44,14.44,0,0,0,.28,2.86,14.11,14.11,0,0,0,.85,2.75A14.48,14.48,0,0,0,257,44.57a14.72,14.72,0,0,0,4.82,3.18,15.09,15.09,0,0,0,2.78.84,15.74,15.74,0,0,0,2.9.28,15.58,15.58,0,0,0,2.9-.28,15,15,0,0,0,7.61-4,14.64,14.64,0,0,0,3.22-4.75,14.79,14.79,0,0,0,.84-2.75,14.57,14.57,0,0,0-.84-8.47A14.79,14.79,0,0,0,278,23.84a15.09,15.09,0,0,0-4.82-3.18,14.93,14.93,0,0,0-2.79-.83,14.77,14.77,0,0,0-2.9-.28A14.91,14.91,0,0,0,257,23.84a14.63,14.63,0,0,0-3.22,4.76,13.9,13.9,0,0,0-.85,2.75,14.44,14.44,0,0,0-.28,2.86h2.71a11.83,11.83,0,0,1,.92-4.59,12,12,0,0,1,2.64-3.88,11.81,11.81,0,0,1,3.94-2.6,12.31,12.31,0,0,1,9.29,0,12.08,12.08,0,0,1,6.57,6.48,11.89,11.89,0,0,1-2.63,13.06,12.2,12.2,0,0,1-8.59,3.51,12.2,12.2,0,0,1-8.58-3.51,12,12,0,0,1-2.64-3.89A11.74,11.74,0,0,1,255.38,34.21Z"/><path class="cls-2" d="M258.18,34.21h-2.72a11.6,11.6,0,0,0,.92,4.55A11.79,11.79,0,0,0,259,42.62a12,12,0,0,0,3.91,2.59,12.13,12.13,0,0,0,13.14-2.59,12,12,0,0,0,2.62-3.86,11.86,11.86,0,0,0,0-9.11,12.17,12.17,0,0,0-15.76-6.44,12,12,0,0,0-6.53,6.44,11.68,11.68,0,0,0-.92,4.56h2.72a9.19,9.19,0,0,1,.7-3.53A9.33,9.33,0,0,1,267.52,25a9.27,9.27,0,0,1,6.61,2.7,9.32,9.32,0,0,1,2,3,9.13,9.13,0,0,1,0,7.06,9.32,9.32,0,0,1-5.06,5,9.48,9.48,0,0,1-7.15,0,9.3,9.3,0,0,1-5.07-5A9.22,9.22,0,0,1,258.18,34.21Z"/></svg>