<svg id="Layer_1" data-name="Layer 1" xmlns="http://www.w3.org/2000/svg" viewBox="0 0 7601.09 1399.67"><defs><style>.cls-1{fill:#ec6552;}.cls-2{fill:#233a80;}.cls-3{fill:#fff;}.cls-4{font-size:12px;fill:#1d1d1b;font-family:MyriadPro-Regular, Myriad Pro;}.cls-5{letter-spacing:-0.01em;}.cls-6{letter-spacing:-0.01em;}.cls-7{letter-spacing:0em;}</style></defs><rect class="cls-1" y="232.22" width="1158.03" height="1158.03"/><rect class="cls-2" x="1277.03" y="94.97" width="1158.03" height="1158.03"/><rect class="cls-1" x="2572.55" width="1158.03" height="1158.03"/><rect class="cls-2" x="3868.07" y="4.45" width="1158.03" height="1158.03"/><rect class="cls-1" x="5147.31" y="159.2" width="1158.03" height="1158.03"/><rect class="cls-2" x="6443.06" y="241.64" width="1158.03" height="1158.03"/><path class="cls-3" d="M85.69,297.32H317l258.29,547,260-547h227.91V1310.23H816.67V859.49L595.52,1344H555L333.85,856.11v454.12H85.69Z"/><path class="cls-3" d="M1856,151.76c314,0,536.63,234.26,536.63,531.65S2170.05,1215.05,1856,1215.05c-315.66,0-536.62-234.26-536.62-531.64S1540.38,151.76,1856,151.76Zm0,832.36c176.11,0,289.08-132.91,289.08-300.71S2032.15,382.7,1856,382.7C1678.28,382.7,1567,515.61,1567,683.41S1678.28,984.12,1856,984.12Z"/><path class="cls-3" d="M3071.75,789.08c0,59.29,47.44,106.72,105,106.72,62.68,0,101.65-35.57,101.65-88.09,0-76.23-99.95-98.25-183-127.05-171.1-61-266-140.61-266-315.1,0-179.57,154.16-328.65,345.59-328.65,225.31,0,332,144,345.59,332H3286.9c0-57.6-35.58-105-105-105-54.21,0-106.73,32.19-106.73,98.26,0,76.23,93.17,89.78,179.57,115.19,181.27,54.21,266,155.85,266,315.1,0,179.57-152.47,328.65-343.9,328.65-221.92,0-347.28-149.08-347.28-332Z"/><path class="cls-3" d="M4424.51,64.68h41.92l474,999.61H4685.7l-48.37-100H4255.22l-46.75,100H3953.73ZM4556.72,795,4445.47,550h-3.22L4329.39,795Z"/><path class="cls-3" d="M5598.52,216.54h255.62V1259.89H5598.52Z"/><path class="cls-3" d="M7087.94,299c185.84,0,314.63,70.1,419,179.33l-164.66,156.5c-68.47-66.84-156.5-109.23-254.31-109.23C6913.5,525.58,6801,656,6801,820.66s112.49,295.07,286.93,295.07c97.81,0,185.84-42.39,254.31-109.23L7502,1163c-97.82,102.7-233.13,179.32-414.08,179.32-309.75,0-529.83-229.86-529.83-521.67S6778.19,299,7087.94,299Z"/><text class="cls-4" transform="translate(7471.16 834.37)"><tspan class="cls-5">L</tspan><tspan x="5.5" y="0">o</tspan><tspan class="cls-6" x="12.08" y="0">r</tspan><tspan class="cls-7" x="15.89" y="0">em ipsum</tspan></text></svg>