<svg id="Layer_1" data-name="Layer 1" xmlns="http://www.w3.org/2000/svg" viewBox="0 0 7362.63 1418.96"><defs><style>.cls-1{fill:#f39886;}.cls-2{fill:#29235c;}.cls-3{fill:#fff;}</style></defs><rect class="cls-1" y="232.22" width="1158.03" height="1158.03"/><rect class="cls-2" x="1232.96" y="94.97" width="1158.03" height="1158.03"/><rect class="cls-1" x="2488.08" width="1158.03" height="1158.03"/><rect class="cls-2" x="3726.92" y="8.89" width="1158.03" height="1158.03"/><rect class="cls-1" x="4965.76" y="147.29" width="1158.03" height="1158.03"/><rect class="cls-2" x="6204.59" y="260.93" width="1158.03" height="1158.03"/><path class="cls-3" d="M85.69,297.32H317l258.29,547,260-547h227.91V1310.23H816.67V859.49L595.52,1344H555L333.85,856.11v454.12H85.69Z"/><path class="cls-3" d="M1812,151.76c314,0,536.63,234.26,536.63,531.65S2126,1215.05,1812,1215.05c-315.66,0-536.63-234.26-536.63-531.64S1496.32,151.76,1812,151.76Zm0,832.36c176.11,0,289.08-132.91,289.08-300.71S1988.09,382.7,1812,382.7c-177.77,0-289.08,132.91-289.08,300.71S1634.21,984.12,1812,984.12Z"/><path class="cls-3" d="M2987.28,789.08c0,59.29,47.44,106.72,105,106.72,62.68,0,101.64-35.57,101.64-88.09,0-76.23-99.95-98.25-183-127.05-171.1-61-266-140.61-266-315.1C2745,186,2899.19,36.91,3090.62,36.91c225.31,0,332,144,345.59,332H3202.43c0-57.6-35.58-105-105-105-54.21,0-106.73,32.19-106.73,98.26,0,76.23,93.18,89.78,179.57,115.19,181.27,54.21,266,155.85,266,315.1,0,179.57-152.46,328.65-343.89,328.65-221.93,0-347.29-149.08-347.29-332Z"/><path class="cls-3" d="M4283.36,69.12h41.92l474,999.61H4544.55l-48.37-100H4114.07l-46.75,100H3812.58Zm132.21,730.36L4304.32,554.42h-3.22L4188.24,799.48Z"/><path class="cls-3" d="M5393.46,204.63h255.62V1248H5393.46Z"/><path class="cls-3" d="M6849.47,318.27c185.84,0,314.63,70.1,419,179.33L7103.78,654.1c-68.47-66.84-156.5-109.22-254.31-109.22-174.44,0-286.93,130.41-286.93,295.07S6675,1135,6849.47,1135c97.81,0,185.84-42.39,254.31-109.23l159.77,156.51c-97.82,102.7-233.13,179.32-414.08,179.32-309.75,0-529.83-229.86-529.83-521.67S6539.72,318.27,6849.47,318.27Z"/></svg>