<svg id="Layer_1" data-name="Layer 1" xmlns="http://www.w3.org/2000/svg" viewBox="0 0 3370.8 3367.47"><defs><style>.cls-1{fill:none;}.cls-2{fill:#161615;}.cls-3{fill:#fff;}.cls-4{fill:#212348;}.cls-5{fill:#233a80;}</style></defs><g id="Group_33" data-name="Group 33"><rect id="Rectangle_122" data-name="Rectangle 122" class="cls-1" x="858.73" y="848.26" width="590.91" height="258.7"/><rect id="Rectangle_123" data-name="Rectangle 123" class="cls-2" x="858.73" y="848.26" width="53.8" height="258.7"/><rect id="Rectangle_124" data-name="Rectangle 124" class="cls-2" x="966.35" y="848.26" width="53.8" height="258.7"/><rect id="Rectangle_125" data-name="Rectangle 125" class="cls-2" x="1073.95" y="848.26" width="53.8" height="258.7"/><rect id="Rectangle_126" data-name="Rectangle 126" class="cls-2" x="1181.57" y="848.26" width="53.8" height="258.7"/><rect id="Rectangle_127" data-name="Rectangle 127" class="cls-2" x="1289.17" y="848.26" width="53.8" height="258.7"/><rect id="Rectangle_128" data-name="Rectangle 128" class="cls-2" x="1395.84" y="848.26" width="53.8" height="258.7"/></g><rect id="Rectangle_129" data-name="Rectangle 129" class="cls-1" x="2652.69" y="570.03" width="644.25" height="1162.05"/><rect id="Rectangle_130" data-name="Rectangle 130" class="cls-3" x="3175.43" y="619.7" width="48.23" height="1162.05"/><rect id="Rectangle_131" data-name="Rectangle 131" class="cls-3" x="3076.1" y="619.7" width="48.23" height="1162.05"/><rect id="Rectangle_132" data-name="Rectangle 132" class="cls-3" x="2976.76" y="619.7" width="48.23" height="1162.05"/><rect id="Rectangle_133" data-name="Rectangle 133" class="cls-3" x="2877.43" y="619.7" width="48.23" height="1162.05"/><rect id="Rectangle_134" data-name="Rectangle 134" class="cls-3" x="2778.09" y="619.7" width="48.23" height="1162.05"/><rect id="Rectangle_135" data-name="Rectangle 135" class="cls-3" x="2678.76" y="619.7" width="48.23" height="1162.05"/><g id="Group_34" data-name="Group 34"><rect id="Rectangle_136" data-name="Rectangle 136" class="cls-4" x="3225.1" y="589.96" width="48.23" height="1162.05"/><rect id="Rectangle_137" data-name="Rectangle 137" class="cls-4" x="3125.77" y="589.96" width="48.23" height="1162.05"/><rect id="Rectangle_138" data-name="Rectangle 138" class="cls-4" x="3026.43" y="589.96" width="48.23" height="1162.05"/><rect id="Rectangle_139" data-name="Rectangle 139" class="cls-4" x="2927.1" y="589.96" width="48.23" height="1162.05"/><rect id="Rectangle_140" data-name="Rectangle 140" class="cls-4" x="2827.76" y="589.96" width="48.23" height="1162.05"/><rect id="Rectangle_141" data-name="Rectangle 141" class="cls-4" x="2728.42" y="589.96" width="48.23" height="1162.05"/><rect id="Rectangle_142" data-name="Rectangle 142" class="cls-4" x="2629.09" y="589.96" width="48.23" height="1162.05"/></g><path id="Path_86" data-name="Path 86" class="cls-1" d="M1522.35,1728.28h644.23a231.79,231.79,0,0,1,9.89-67.2,228.6,228.6,0,0,1,28.86-60.91,232.59,232.59,0,0,1,103.94-85.45,228.31,228.31,0,0,1,65.29-16.3c1.42-.11,2.85-.23,4.27-.37.71-.09,1.43-.09,2.14-.14l2.15-.14,2.16-.15h2.16l4.33-.16c2.91,0,5.82-.14,8.72,0h4.36c1.44.07,2.89.12,4.33.15.72,0,1.51.09,2.16.14l2.14.13,2.16.12,2.13.21c1.42.16,2.85.23,4.27.38s2.82.35,4.24.5l1.07.1,1,.16,2.11.3c1.41.19,2.81.34,4.2.62s2.79.46,4.18.68,2.76.55,4.15.81a227.55,227.55,0,0,1,63.26,22.63,232.83,232.83,0,0,1,95.25,95.25,227.55,227.55,0,0,1,22.63,63.26c.25,1.39.52,2.77.81,4.15s.44,2.79.68,4.18.42,2.79.62,4.19l.3,2.1c0,.35.12.69.15,1l.11,1.06c.15,1.42.31,2.83.49,4.24s.23,2.85.38,4.27l.21,2.13.12,2.15.14,2.14c0,.73.13,1.44.13,2.16,0,1.45.06,2.89.16,4.33v4.36c.12,2.91,0,5.81,0,8.72l-.18,4.33v2.18l-.16,2.14-.13,2.15a10,10,0,0,1-.15,2.15c-.14,1.41-.27,2.84-.38,4.27a228,228,0,0,1-16.29,65.29,232.67,232.67,0,0,1-85.46,103.94,228.6,228.6,0,0,1-60.91,28.86,232.52,232.52,0,0,1-67.2,9.89v644.23l16-.18c2.67,0,5.32,0,8-.15l8-.29,8-.32c2.67-.1,5.34-.21,8-.39l16-1c2.67-.16,5.34-.39,8-.63l8-.71,8-.74c2.67-.25,5.34-.57,8-.87,5.32-.61,10.66-1.21,16-1.87l16-2.22A871.07,871.07,0,0,0,2651.61,2566c2.58-.78,5.17-1.51,7.72-2.35l7.7-2.47,7.68-2.51,3.83-1.27,3.81-1.32,15.24-5.39c5.06-1.86,10.08-3.79,15.09-5.71,2.52-1,5-1.9,7.54-2.92l7.55-3,7.54-3c1.24-.51,2.49-1,3.73-1.5l3.7-1.6,14.78-6.49c4.89-2.23,9.76-4.53,14.64-6.81s9.7-4.66,14.51-7,9.64-4.77,14.39-7.3,9.53-5,14.26-7.55l14.08-7.86c4.71-2.59,9.31-5.37,13.94-8.1l6.93-4.12c2.32-1.36,4.53-2.81,6.86-4.22,4.53-2.84,9.06-5.68,13.58-8.57l13.46-8.85a877.12,877.12,0,0,0,189.95-172.22q20.43-24.86,39-51.19l9.17-13.23c3-4.44,5.95-8.93,8.9-13.43,1.51-2.25,3-4.53,4.39-6.76l4.29-6.82,4.25-6.83,2.11-3.43,2.07-3.45a872.83,872.83,0,0,0,58.05-115.15c2-5,4.09-10,6-15l5.75-15.08,1.42-3.77,1.35-3.81,2.7-7.54,2.68-7.63c.89-2.54,1.7-5.12,2.54-7.67,1.68-5.13,3.35-10.24,4.95-15.39l4.62-15.48,1.13-3.88,1.07-3.89,2.13-7.8,2.09-7.8c.35-1.3.68-2.61,1-3.91l1-3.92a874.63,874.63,0,0,0,21.92-127l1.42-16c.25-2.67.39-5.34.58-8l.51-8,.48-8c.14-2.67.23-5.34.33-8,.21-5.35.43-10.69.56-16,.17-10.67.36-21.33.15-32l-.1-8v-4l-.14-4-.62-16c-.09-2.67-.3-5.34-.45-8l-.5-8-.53-8-.67-8c-.49-5.34-.92-10.68-1.51-16l-1.83-16-.47-4-.54-4-1.1-8c-.76-5.33-1.51-10.64-2.38-16s-1.75-10.56-2.66-15.92l-3-15.85c-1-5.3-2.14-10.56-3.29-15.81l-1.73-7.89c-.29-1.32-.58-2.63-.88-3.94l-1-3.92-3.84-15.7c-1.36-5.2-2.78-10.41-4.18-15.6-.73-2.59-1.41-5.2-2.18-7.78l-2.29-7.76-2.31-7.74-1.18-3.86-1.23-3.85-5-15.37c-1.74-5.1-3.55-10.17-5.33-15.25-.91-2.54-1.78-5.09-2.73-7.55l-2.85-7.54-2.88-7.55-1.51-3.77-1.51-3.74-6.13-15c-2.11-5-4.27-9.88-6.44-14.8s-4.42-9.81-6.7-14.7-4.53-9.76-6.94-14.57l-7.2-14.44q-3.72-7.15-7.54-14.27a877,877,0,0,0-359-359q-7.11-3.78-14.27-7.55L2781.67,942c-4.82-2.42-9.7-4.66-14.58-6.94s-9.74-4.53-14.69-6.7-9.86-4.33-14.82-6.44l-14.95-6.13-3.74-1.51-3.77-1.51-7.55-2.88L2700,907c-2.52-1-5.07-1.82-7.55-2.73-5.08-1.8-10.15-3.59-15.25-5.33l-15.37-5-3.85-1.23-3.86-1.18-7.74-2.31-7.76-2.29c-2.57-.77-5.19-1.51-7.78-2.17-5.19-1.42-10.4-2.83-15.6-4.18l-15.69-3.85-3.93-1c-1.31-.32-2.62-.59-3.93-.89l-7.89-1.74c-5.27-1.14-10.56-2.29-15.82-3.28l-15.85-3q-7.95-1.37-15.92-2.66c-5.31-.9-10.56-1.64-15.95-2.38l-8-1.1-4-.54-4-.47-16-1.83c-5.34-.56-10.68-1-16-1.51l-8-.68-8-.52-8-.5c-2.67-.15-5.34-.35-8-.44l-16-.62-4-.14h-4l-8-.1c-10.66-.21-21.33,0-32,.15-5.34.14-10.68.36-16,.56l-8,.33-8,.48-8,.52c-2.67.18-5.34.33-8,.57l-16,1.42a874.63,874.63,0,0,0-127,21.92l-3.92,1c-1.31.32-2.61.65-3.92,1l-7.8,2.09-7.8,2.13-3.9,1.07-3.88,1.13-15.49,4.62c-5.15,1.62-10.26,3.29-15.39,5-2.55.84-5.13,1.66-7.67,2.55l-7.63,2.67-7.55,2.68-3.8,1.36-3.77,1.42-15.09,5.75c-5,2-10,4-15,6a874.12,874.12,0,0,0-115.15,58.06l-3.46,2.07-3.42,2.11-6.84,4.25-6.81,4.29c-2.28,1.43-4.53,2.93-6.76,4.39-4.53,3-9.06,5.88-13.43,8.9l-13.23,9.17q-26.26,18.63-51.19,39a877.43,877.43,0,0,0-172.23,190l-8.84,13.46c-2.89,4.52-5.71,9.05-8.57,13.58-1.4,2.29-2.85,4.52-4.22,6.86l-4.12,6.93c-2.73,4.63-5.51,9.23-8.1,13.94l-7.86,14.07q-3.81,7.11-7.55,14.26c-2.53,4.74-4.89,9.58-7.3,14.39s-4.8,9.63-7.06,14.52-4.53,9.74-6.8,14.63l-6.49,14.79-1.6,3.69c-.53,1.24-1,2.49-1.51,3.73l-3,7.54-3,7.55c-1,2.49-2,5-2.93,7.54-1.92,5-3.85,10.06-5.7,15.09l-5.37,15.24-1.33,3.81-1.27,3.84-2.5,7.68-2.48,7.69c-.83,2.57-1.51,5.16-2.35,7.72a871,871,0,0,0-28.17,126l-2.22,16c-.66,5.32-1.26,10.65-1.87,16-.3,2.67-.62,5.34-.87,8l-.73,8-.71,8c-.22,2.67-.47,5.34-.63,8l-1,16c-.18,2.68-.29,5.35-.39,8l-.32,8-.29,8c-.1,2.67-.1,5.34-.15,8Z"/><path id="Path_87" data-name="Path 87" class="cls-3" d="M1620.25,1728.26H1572l.16-15.08c0-2.52,0-5,.15-7.55l.28-7.54.3-7.55c.1-2.52.19-5,.36-7.54l1-15.09c.15-2.52.37-5,.6-7.54l.67-7.54.69-7.55c.24-2.52.54-5,.81-7.54.58-5,1.13-10.06,1.77-15.09l2.09-15.09a821.63,821.63,0,0,1,26.57-118.76c.74-2.43,1.51-4.88,2.22-7.29l2.34-7.26,2.35-7.24,1.19-3.62,1.26-3.59,5.07-14.37c1.75-4.76,3.57-9.5,5.37-14.25.92-2.37,1.79-4.75,2.76-7.11l2.86-7.06,2.88-7c.49-1.17,1-2.35,1.52-3.51l1.51-3.49,6.11-13.94c2.11-4.61,4.27-9.2,6.41-13.8s4.4-9.14,6.65-13.69,4.53-9,6.88-13.57l7.12-13.45,7.41-13.27c2.46-4.44,5.07-8.79,7.64-13.14l3.87-6.54c1.29-2.19,2.66-4.31,4-6.47,2.68-4.3,5.34-8.6,8.08-12.87l8.34-12.69a827.22,827.22,0,0,1,370.28-303.92c4.71-1.91,9.4-3.85,14.12-5.73l14.25-5.42,3.56-1.34,3.59-1.28,7.18-2.54,7.2-2.52c2.4-.84,4.81-1.6,7.23-2.4,4.83-1.5,9.65-3.15,14.49-4.66l14.61-4.36,3.65-1.07,3.66-1,7.35-2,7.37-2c1.22-.33,2.46-.65,3.69-.95l3.7-.9A824.31,824.31,0,0,1,2317,906.79l15.08-1.35c2.52-.24,5-.37,7.55-.54l7.54-.48,7.54-.47c2.52-.12,5-.21,7.55-.32,5-.19,10.08-.39,15.08-.52,10.07-.16,20.15-.35,30.18-.16l7.54.11h3.78l3.78.14,15.09.57c2.52.09,5,.29,7.54.42l7.55.47,7.54.5,7.54.64c5,.46,10.08.88,15.09,1.41l15.09,1.72,3.77.44,3.77.51,7.55,1c5,.71,10,1.39,15.08,2.25l15,2.5,15,2.85c5,.94,9.94,2,14.91,3.1l7.43,1.63c1.24.27,2.48.54,3.72.83l3.71.89,14.8,3.62c4.92,1.28,9.81,2.61,14.73,3.93,2.44.68,4.9,1.32,7.33,2l7.3,2.16,7.3,2.19L2643,940l3.62,1.16,14.49,4.72c4.81,1.63,9.59,3.34,14.39,5,2.38.86,4.8,1.67,7.17,2.58l7.12,2.7,7.1,2.71,3.57,1.38,3.53,1.43,14.09,5.76c4.68,2,9.31,4,14,6s9.26,4.16,13.85,6.3,9.2,4.27,13.74,6.55l13.58,6.79,13.46,7.07a827.47,827.47,0,0,1,338.65,338.66l7.09,13.45,6.79,13.58c2.28,4.53,4.39,9.15,6.55,13.75s4.3,9.19,6.31,13.85,4.08,9.29,6,14l5.78,14.09,1.43,3.53,1.38,3.56,2.71,7.12,2.69,7.13c.9,2.36,1.72,4.78,2.57,7.16,1.69,4.78,3.4,9.58,5,14.38l4.72,14.48,1.16,3.62,1.1,3.65,2.19,7.31,2.16,7.3c.72,2.43,1.36,4.89,2,7.35,1.32,4.9,2.67,9.8,3.95,14.71l3.62,14.8.89,3.69c.3,1.24.56,2.48.83,3.71l1.63,7.44c1.07,5,2.17,9.92,3.11,14.91l2.85,15,2.5,15c.86,5,1.51,10,2.25,15.09l1,7.54.51,3.78.44,3.77,1.72,15.09c.53,5,1,10.07,1.4,15.08l.65,7.55.5,7.54.48,7.54c.14,2.52.33,5,.43,7.55l.57,15.09.14,3.78v3.77l.1,7.55c.2,10.06,0,20.14-.15,30.17-.13,5-.33,10.08-.52,15.09-.11,2.52-.2,5-.32,7.54l-.47,7.55-.48,7.54c-.18,2.52-.32,5-.54,7.54l-1.35,15.09a824.31,824.31,0,0,1-20.67,119.83l-.9,3.69c-.31,1.23-.62,2.46-1,3.7l-2,7.36-2,7.35-1,3.67-1.07,3.65-4.36,14.6c-1.51,4.85-3.11,9.67-4.68,14.5-.8,2.42-1.51,4.85-2.4,7.23l-2.52,7.2-2.53,7.18-1.28,3.59-1.35,3.56-5.43,14.23c-1.87,4.72-3.8,9.41-5.73,14.12a827.14,827.14,0,0,1-303.92,370.27l-12.69,8.35c-4.26,2.73-8.58,5.4-12.87,8.09-2.16,1.32-4.29,2.69-6.48,4l-6.53,3.88c-4.38,2.56-8.7,5.19-13.14,7.63l-13.28,7.41-13.44,7.12c-4.53,2.38-9.06,4.62-13.58,6.88s-9.05,4.53-13.68,6.65-9.19,4.3-13.81,6.42l-13.94,6.11-3.49,1.51c-1.16.49-2.33,1-3.51,1.5l-7,2.89-7.06,2.86c-2.35,1-4.73,1.84-7.09,2.75-4.75,1.81-9.49,3.62-14.26,5.39l-14.36,5.07-3.6,1.25-3.63,1.19-7.24,2.35-7.25,2.34c-2.42.79-4.86,1.51-7.29,2.22A822.19,822.19,0,0,1,2518,2544.77l-15.09,2.1c-5,.63-10.05,1.19-15.09,1.76-2.52.27-5,.57-7.54.83l-7.55.7-7.54.66c-2.52.21-5,.45-7.54.6l-15.09.95c-2.52.17-5,.27-7.54.37l-7.55.3-7.54.27c-2.52.09-5,.1-7.55.15l-15.08.17v-48.28l14.23-.17c2.36,0,4.73,0,7.12-.14l7.12-.25,7.12-.27c2.37-.09,4.73-.18,7.12-.35l14.24-.9c2.37-.14,4.74-.37,7.12-.56l7.11-.64,7.12-.64c2.36-.23,4.73-.52,7.1-.79,4.74-.54,9.48-1.07,14.2-1.66l14.18-2a774.67,774.67,0,0,0,111.8-25c2.29-.69,4.52-1.34,6.86-2.1l6.82-2.2,6.82-2.22,3.41-1.11,3.38-1.18,13.58-4.77c4.52-1.64,8.94-3.36,13.41-5.07,2.23-.86,4.53-1.67,6.68-2.59l6.64-2.7,6.64-2.72,3.3-1.37,3.29-1.44,13.13-5.74c4.35-2,8.66-4,13-6s8.6-4.13,12.89-6.26,8.57-4.23,12.77-6.47l12.66-6.7,12.51-7c4.18-2.31,8.26-4.78,12.38-7.2l6.15-3.65c2.05-1.21,4.08-2.5,6-3.74,4.05-2.54,8.11-5,12.08-7.55l11.94-7.86a779,779,0,0,0,286.2-348.67c1.81-4.42,3.62-8.84,5.38-13.27L3126,1999l1.25-3.35,1.21-3.38,2.38-6.76,2.37-6.77c.8-2.27,1.51-4.53,2.26-6.81,1.51-4.52,3-9,4.39-13.58l4.11-13.74,1-3.44,1-3.46,1.88-6.92,1.86-6.93c.32-1.14.62-2.3.89-3.47l.86-3.48a775.26,775.26,0,0,0,19.46-112.81l1.25-14.23c.23-2.37.35-4.75.52-7.12l.45-7.12.44-7.12c.12-2.37.19-4.76.3-7.13.18-4.75.38-9.5.5-14.24.13-9.49.33-19,.13-28.47l-.09-7.12V1708l-.12-3.56-.54-14.24c0-2.37-.26-4.75-.39-7.12l-.46-7.12-.46-7.13-.62-7.12c-.43-4.74-.82-9.49-1.31-14.23l-1.62-14.21-.42-3.54-.48-3.55-1-7.09c-.67-4.72-1.31-9.44-2.13-14.15l-2.36-14.12-2.68-14.08c-.88-4.69-1.9-9.35-2.93-14l-1.51-7c-.26-1.17-.5-2.34-.78-3.5l-.85-3.49-3.41-13.92c-1.21-4.64-2.47-9.24-3.73-13.85-.63-2.31-1.22-4.62-1.91-6.91l-2-6.88-2-6.89-1-3.42-1.1-3.41-4.44-13.58c-1.51-4.53-3.14-9-4.74-13.58-.79-2.25-1.51-4.53-2.42-6.74l-2.54-6.7-2.55-6.7-1.29-3.35-1.35-3.32-5.43-13.26q-2.84-6.59-5.72-13.14c-1.91-4.38-3.92-8.72-5.94-13s-4-8.67-6.17-12.93l-6.38-12.82-6.67-12.67a779.17,779.17,0,0,0-318.9-318.91l-12.68-6.67-12.82-6.38c-4.27-2.15-8.62-4.13-12.93-6.17s-8.65-4.06-13.05-5.94-8.76-3.85-13.15-5.72l-13.27-5.43-3.32-1.35-3.35-1.29-6.7-2.55-6.7-2.54c-2.23-.84-4.53-1.61-6.76-2.43-4.53-1.58-9-3.2-13.58-4.73L2632,987.05l-3.41-1.1-3.44-1-6.88-2-6.89-2c-2.29-.68-4.6-1.28-6.91-1.91-4.61-1.26-9.23-2.52-13.85-3.72l-13.92-3.4-3.49-.85c-1.16-.29-2.34-.53-3.5-.78l-7-1.51c-4.66-1-9.34-2-14-2.93L2534.61,963l-14.13-2.35q-7.07-1.21-14.16-2.11l-7.09-1-3.54-.48-3.55-.43-14.21-1.61c-4.74-.5-9.49-.89-14.23-1.31l-7.12-.62-7.12-.47-7.12-.45c-2.37-.14-4.75-.32-7.12-.4l-14.25-.54-3.56-.12h-3.56l-7.12-.09c-9.49-.2-19,0-28.47.14-4.74.12-9.49.33-14.24.49-2.37.09-4.75.18-7.12.3l-7.12.44-7.12.46c-2.37.16-4.74.28-7.12.51l-14.23,1.27a776.61,776.61,0,0,0-112.81,19.46L2205,975c-1.16.29-2.32.57-3.47.89l-6.92,1.86-6.93,1.88-3.45,1-3.44,1-13.74,4.09c-4.53,1.44-9.06,2.93-13.66,4.41l-6.8,2.26-6.78,2.37-6.75,2.38-3.39,1.21-3.34,1.27-13.4,5.1c-4.44,1.76-8.86,3.59-13.29,5.38A779,779,0,0,0,1751,1296.26l-7.86,12c-2.58,4-5.08,8.07-7.54,12.07-1.25,2-2.55,4-3.76,6l-3.65,6.16c-2.41,4.11-4.89,8.19-7.2,12.37l-7,12.5-6.7,12.66c-2.25,4.21-4.35,8.5-6.47,12.78s-4.27,8.54-6.27,12.89-4,8.64-6,13l-5.76,13.12-1.44,3.29c-.46,1.1-.92,2.21-1.37,3.31l-2.71,6.63-2.7,6.64c-.91,2.2-1.74,4.53-2.6,6.69-1.71,4.52-3.41,8.93-5.07,13.41l-4.77,13.58-1.17,3.38-1.12,3.41-2.21,6.82-2.21,6.82c-.74,2.27-1.39,4.52-2.08,6.86a773.45,773.45,0,0,0-25,111.81l-2,14.18c-.59,4.73-1.12,9.48-1.66,14.2-.26,2.37-.54,4.74-.77,7.11l-.65,7.12-.63,7.12c-.21,2.37-.43,4.74-.56,7.12l-.91,14.25c-.17,2.36-.26,4.75-.35,7.12l-.28,7.12-.26,7.12c-.09,2.38-.09,4.74-.14,7.12Z"/><path id="Path_88" data-name="Path 88" class="cls-3" d="M1719.59,1728.26h-48.28l.15-13.3c0-2.22,0-4.44.12-6.66l.24-6.65.26-6.65c.09-2.22.17-4.44.32-6.66l.84-13.3c.14-2.22.33-4.44.53-6.66l.59-6.65.6-6.66c.21-2.21.48-4.42.73-6.63.51-4.42,1-8.86,1.51-13.28l1.84-13.25a722.63,722.63,0,0,1,23.37-104.42c.65-2.13,1.25-4.29,1.95-6.41l2.05-6.37,2.08-6.37,1-3.18,1.1-3.15,4.53-12.63c1.51-4.2,3.15-8.36,4.72-12.52.82-2.09,1.51-4.18,2.43-6.25l2.52-6.2,2.53-6.2c.43-1,.85-2.07,1.28-3l1.35-3,5.37-12.26c1.86-4.06,3.76-8.1,5.64-12.07s3.87-8,5.84-12.07,3.94-8,6-11.94l6.27-11.83,6.51-11.67c2.15-3.91,4.53-7.71,6.72-11.56l3.41-5.75c1.13-1.91,2.34-3.8,3.5-5.69,2.35-3.77,4.7-7.54,7.1-11.31l7.35-11.17a727.84,727.84,0,0,1,325.78-267.42c4.14-1.69,8.27-3.4,12.41-5l12.52-4.77,3.14-1.18,3.15-1.11,6.31-2.23,6.32-2.22c2.09-.74,4.24-1.4,6.35-2.11,4.24-1.38,8.49-2.78,12.75-4.11l12.84-3.83,3.21-.95,3.23-.89,6.46-1.75,6.47-1.73c1.07-.31,2.16-.58,3.24-.83l3.25-.8a725.94,725.94,0,0,1,105.37-18.11l13.29-1.17c2.22-.22,4.44-.34,6.65-.49l6.66-.42,6.65-.41,6.65-.27c4.44-.16,8.87-.34,13.32-.46,8.87-.13,17.75-.32,26.62-.13l6.65.09h3.32l3.33.13,13.32.51c2.22,0,4.44.24,6.66.38l6.65.42,6.65.44,6.65.57c4.44.41,8.87.77,13.3,1.22l13.27,1.51,3.32.39,3.3.46,6.63.92c4.42.62,8.82,1.22,13.23,2l13.2,2.21,13.14,2.5c4.39.82,8.75,1.78,13.11,2.73l6.54,1.44c1.1.24,2.18.46,3.27.72l3.26.78,13,3.19c4.31,1.13,8.63,2.31,12.93,3.47,2.15.6,4.31,1.15,6.45,1.79l6.43,1.9,6.41,1.92,3.22,1,3.18,1,12.73,4.15c4.23,1.51,8.44,2.94,12.64,4.42l6.31,2.26,6.26,2.37,6.26,2.39,3.13,1.2,3.11,1.25,12.38,5.07c4.11,1.75,8.2,3.56,12.28,5.35s8.15,3.66,12.18,5.55,8.1,3.74,12.07,5.75l12,6,11.84,6.23a728.12,728.12,0,0,1,298,298l6.23,11.85,6,12c2,4,3.87,8,5.75,12.07s3.79,8.08,5.55,12.17,3.59,8.18,5.34,12.28l5.07,12.39,1.25,3.11,1.21,3.12,2.39,6.26,2.36,6.27c.8,2.08,1.51,4.21,2.27,6.3,1.51,4.21,3,8.42,4.42,12.65l4.13,12.73,1,3.18,1,3.22,1.92,6.41,1.9,6.43c.63,2.14,1.19,4.3,1.79,6.46,1.16,4.31,2.36,8.61,3.47,12.93l3.18,13,.79,3.26c.27,1.09.48,2.17.74,3.28l1.43,6.53c1,4.36,1.92,8.72,2.73,13.11l2.51,13.14,2.2,13.2c.75,4.41,1.36,8.81,2,13.23l.92,6.62.45,3.31.39,3.32,1.51,13.27c.47,4.42.82,8.86,1.22,13.3l.58,6.65.44,6.65.42,6.66c.12,2.22.3,4.43.38,6.65l.49,13.33.13,3.33v3.32l.09,6.65c.19,8.87,0,17.75-.12,26.62-.13,4.43-.32,8.88-.49,13.32-.09,2.22-.16,4.44-.27,6.65l-.41,6.66-.42,6.65c-.15,2.22-.27,4.44-.47,6.66l-1.17,13.29a724.77,724.77,0,0,1-18.19,105.37l-.8,3.24c-.25,1.09-.52,2.18-.82,3.25l-1.74,6.47-1.75,6.46-.89,3.22-.95,3.22-3.82,12.84c-1.34,4.25-2.73,8.5-4.1,12.74-.69,2.13-1.36,4.26-2.11,6.37l-2.22,6.32-2.23,6.32-1.12,3.16-1.17,3.13-4.77,12.53c-1.64,4.15-3.35,8.26-5,12.4a727.84,727.84,0,0,1-267.42,325.78l-11.17,7.35c-3.75,2.4-7.54,4.74-11.31,7.11-1.9,1.16-3.77,2.36-5.69,3.5l-5.75,3.41c-3.85,2.24-7.65,4.52-11.56,6.71L2744,2367l-11.82,6.26c-3.93,2.11-8,4.06-11.94,6s-8,4-12.07,5.86-8.08,3.78-12.07,5.64l-12.26,5.37-3,1.34-3.1,1.28-6.19,2.54-6.2,2.52c-2.07.84-4.17,1.61-6.25,2.41-4.18,1.59-8.34,3.19-12.54,4.74l-12.63,4.53-3.16,1.1-3.19,1-6.37,2.06-6.38,2.06c-2.13.69-4.27,1.3-6.41,1.94a722.6,722.6,0,0,1-104.42,23.36l-13.25,1.84c-4.42.56-8.84,1-13.27,1.51-2.22.24-4.42.51-6.64.72l-6.65.6-6.65.59c-2.22.2-4.44.39-6.66.53l-13.32.85c-2.22.15-4.43.24-6.65.31l-6.65.26-6.66.24c-2.21.09-4.43.08-6.65.12l-13.31.15v-48.28l12.44-.15c2.08,0,4.14,0,6.23-.12l6.22-.23,6.21-.24c2.07-.07,4.15-.15,6.22-.3l12.43-.78c2.07-.13,4.15-.32,6.22-.5l6.22-.54,6.22-.56c2.06-.2,4.13-.46,6.19-.68,4.14-.47,8.27-.92,12.41-1.51l12.37-1.72A678.8,678.8,0,0,0,3024.07,1988c1.51-3.87,3.17-7.71,4.71-11.57l4.45-11.68,1.1-2.93,1.06-3,2.08-5.9,2.07-5.89c.69-2,1.31-4,2-5.93,1.28-4,2.58-7.92,3.83-11.91l3.57-12,.9-3,.82-3,1.65-6,1.63-6c.27-1,.52-2,.77-3l.74-3a677,677,0,0,0,17-98.36l1.1-12.41c.2-2.07.3-4.15.45-6.22l.39-6.22.38-6.21c.11-2.07.17-4.15.26-6.22.15-4.15.33-8.3.45-12.43.11-8.3.29-16.6.11-24.88l-.08-6.22v-3.1l-.1-3.11-.47-12.45c0-2.07-.23-4.15-.35-6.22l-.39-6.21-.39-6.22-.54-6.21c-.38-4.14-.71-8.29-1.15-12.42l-1.41-12.4-.35-3.09-.42-3-.86-6.19c-.58-4.12-1.13-8.24-1.84-12.34l-2.06-12.33-2.33-12.26c-.76-4.09-1.68-8.16-2.55-12.24l-1.35-6c-.22-1-.44-2-.68-3l-.74-3-3-12.07c-1.06-4-2.16-8-3.25-12.07-.56-2-1.07-4-1.67-6l-1.78-6-1.8-6-.9-3-1-3-3.86-11.89c-1.35-3.93-2.75-7.86-4.12-11.79-.71-2-1.36-3.94-2.11-5.89l-2.22-5.84-2.22-5.83-1.11-2.92-1.18-2.89-4.73-11.58c-1.65-3.83-3.32-7.63-5-11.45s-3.42-7.54-5.17-11.36-3.49-7.54-5.37-11.28l-5.57-11.18-5.82-11a679.9,679.9,0,0,0-278.24-278.24l-11.05-5.82-11.18-5.57c-3.71-1.89-7.54-3.61-11.28-5.37s-7.55-3.55-11.38-5.18-7.61-3.35-11.45-5l-11.57-4.74-2.9-1.18-2.91-1.11-5.84-2.22-5.84-2.22c-1.94-.74-3.92-1.4-5.88-2.11-3.92-1.39-7.86-2.79-11.8-4.13l-11.89-3.87-3-1-3-.91-6-1.78-6-1.78c-2-.6-4-1.12-6-1.67-4-1.09-8-2.19-12.07-3.25l-12.07-3-3-.74c-1-.24-2-.46-3-.68l-6-1.34c-4.07-.88-8.13-1.8-12.24-2.55l-12.26-2.34-12.33-2c-4.1-.71-8.22-1.27-12.34-1.84l-6.18-.86-3-.43-3.1-.36-12.4-1.42c-4.13-.44-8.28-.77-12.41-1.14l-6.22-.55-6.22-.4-6.22-.4c-2.06-.12-4.15-.28-6.22-.34l-12.44-.47-3.11-.12h-3.11l-6.22-.09c-8.3-.18-16.59,0-24.88.12-4.14.1-8.29.29-12.44.44-2.07.07-4.15.15-6.22.25l-6.22.4-6.21.39c-2.07.15-4.15.24-6.22.45l-12.42,1.1a676.84,676.84,0,0,0-98.35,17l-3,.73c-1,.24-2,.5-3,.77l-6,1.63-6,1.65-3,.83-3,.89-12,3.56c-4,1.25-7.93,2.55-11.9,3.83-2,.65-4,1.27-5.93,2l-5.9,2.07-5.9,2.08-3,1.06-2.93,1.1-11.68,4.45c-3.87,1.51-7.72,3.14-11.57,4.71a677.23,677.23,0,0,0-411.18,527.13l-1.73,12.36c-.51,4.14-1,8.27-1.51,12.4-.23,2.07-.48,4.14-.68,6.2l-.56,6.22-.54,6.22c-.18,2.06-.38,4.13-.5,6.21l-.78,12.43c-.15,2.07-.23,4.15-.3,6.22l-.25,6.21-.22,6.22c-.08,2.08-.08,4.15-.12,6.22Z"/><path id="Path_89" data-name="Path 89" class="cls-3" d="M1818.93,1728.28h-48.28l.13-11.51c0-1.92,0-3.83.11-5.76l.21-5.77.21-5.76c0-1.91.15-3.83.29-5.75l.74-11.51c.1-1.91.28-3.83.45-5.75l.51-5.74.51-5.75c.18-1.92.43-3.82.64-5.74.44-3.81.86-7.64,1.32-11.46l1.6-11.44A627.75,627.75,0,0,1,2157.57,1149c3.58-1.51,7.13-2.93,10.7-4.35l10.81-4.1,2.7-1,2.71-1,5.45-1.92,5.45-1.91c1.81-.65,3.65-1.21,5.47-1.81,3.67-1.18,7.32-2.4,11-3.55l11.07-3.29,2.78-.81,2.79-.77,5.57-1.51,5.58-1.51c.94-.26,1.87-.5,2.81-.71l2.81-.69a625.21,625.21,0,0,1,90.93-15.69l11.48-1c1.92-.18,3.83-.27,5.75-.41l5.75-.36,5.75-.36,5.75-.24c3.83-.14,7.68-.32,11.51-.41,7.68-.09,15.36-.27,23-.11l5.77.08h2.88l2.88.1,11.51.44c1.92,0,3.83.21,5.75.32l5.75.36,5.75.38,5.75.5c3.83.34,7.66.65,11.48,1l11.47,1.32,2.86.33,2.85.39,5.72.8c3.8.54,7.62,1,11.42,1.7l11.39,1.89,11.33,2.17a626.93,626.93,0,0,1,492.7,492.7l2.17,11.34,1.89,11.39c.66,3.79,1.16,7.55,1.7,11.43l.8,5.71.39,2.85.33,2.87,1.31,11.47c.41,3.81.72,7.65,1.06,11.48l.5,5.75.37,5.74.37,5.75c.1,1.92.27,3.83.31,5.75l.44,11.51.11,2.88v8.65c.16,7.68,0,15.36-.11,23-.11,3.85-.27,7.68-.42,11.51,0,1.92-.14,3.85-.23,5.77l-.36,5.74-.36,5.75c-.14,1.92-.22,3.83-.41,5.75l-1,11.5a625.45,625.45,0,0,1-15.69,90.93l-.69,2.8c-.23.94-.47,1.88-.73,2.8l-1.51,5.58-1.51,5.58-.77,2.79-.81,2.76L2996.3,1914c-1.14,3.68-2.35,7.33-3.54,11-.61,1.82-1.18,3.66-1.82,5.49l-1.91,5.44-1.92,5.45-1,2.72-1,2.7-4.1,10.78c-1.42,3.58-2.9,7.14-4.35,10.7a626.11,626.11,0,0,1-487.32,380.2l-11.44,1.6c-3.82.48-7.64.89-11.47,1.33-1.91.21-3.81.45-5.73.63l-5.75.52-5.75.51c-1.91.17-3.83.35-5.75.45l-11.51.73c-1.91.13-3.83.21-5.75.28l-5.76.23-5.77.21c-1.91.08-3.83,0-5.75.11l-11.52.13v-48.27l10.65-.14c1.78,0,3.55,0,5.33-.09l5.32-.2,5.33-.19c1.76,0,3.55-.14,5.31-.26l10.56-.68c1.78-.09,3.55-.27,5.31-.42l5.31-.47,5.32-.46c1.76-.17,3.52-.4,5.29-.59,3.53-.41,7.06-.79,10.56-1.22l10.56-1.51a579,579,0,0,0,449.84-350.95c1.34-3.29,2.7-6.58,4-9.87l3.79-10,1-2.49.89-2.52,1.78-5,1.76-5c.61-1.67,1.12-3.38,1.68-5,1.09-3.38,2.2-6.76,3.27-10.14l3-10.21.76-2.55.71-2.57,1.4-5.14,1.39-5.15c.24-.86.45-1.72.66-2.58l.64-2.58a578.6,578.6,0,0,0,14.46-83.91l.95-10.56c.19-1.77.26-3.55.38-5.32l.33-5.31.33-5.31c.1-1.76.15-3.54.21-5.31.12-3.55.29-7.09.38-10.64.07-7.09.26-14.19.09-21.28v-8l-.11-2.65-.4-10.64c0-1.78-.2-3.54-.31-5.31l-.33-5.31-.33-5.31-.47-5.31c-.31-3.54-.6-7.08-1-10.56l-1.21-10.57-.3-2.64-.36-2.64-.74-5.28c-.5-3.51-.95-7-1.51-10.56l-1.74-10.56-2-10.47a578.69,578.69,0,0,0-454.73-454.73l-10.47-2-10.56-1.75c-3.5-.62-7-1.07-10.56-1.51l-5.28-.74-2.65-.36-2.64-.3-10.56-1.21c-3.53-.38-7.07-.65-10.56-1l-5.29-.47-5.33-.33-5.31-.33c-1.78-.1-3.55-.26-5.33-.31l-10.56-.4-2.67-.09h-8c-7.09-.17-14.18,0-21.29.09-3.55.09-7.09.25-10.64.37-1.78,0-3.54.13-5.32.22l-5.33.33-5.31.33c-1.76.12-3.55.19-5.31.38l-10.56.95A579,579,0,0,0,2257,1167l-2.58.64c-.86.21-1.73.42-2.58.66l-5.14,1.39-5.15,1.39-2.56.71-2.55.75-10.21,3c-3.4,1.07-6.76,2.19-10.14,3.27-1.7.56-3.39,1.08-5.06,1.68l-5,1.76-5,1.77-2.5.89-2.49,1-10,3.78c-3.3,1.32-6.58,2.67-9.87,4a577.83,577.83,0,0,0-350.94,449.83l-1.51,10.56c-.44,3.53-.82,7.06-1.23,10.56-.19,1.76-.42,3.53-.59,5.29l-.46,5.31-.47,5.32c-.15,1.76-.33,3.53-.43,5.31l-.67,10.56c-.13,1.76-.2,3.54-.26,5.32l-.2,5.32-.19,5.32c0,1.78,0,3.55-.09,5.33Z"/><path id="Path_90" data-name="Path 90" class="cls-3" d="M1918.26,1728.26H1870c-.22-271.41,205.7-498.63,475.83-525l9.67-.86c1.61-.16,3.23-.22,4.84-.34l4.85-.31,4.86-.31,4.85-.2c3.25-.12,6.48-.25,9.72-.34,6.47,0,13-.25,19.45-.08h7.29l2.42.09,9.72.36c1.61,0,3.23.18,4.86.27l4.84.32,4.86.3,4.84.42c3.23.31,6.46.55,9.68.89l9.65,1.1,2.41.28,2.4.33,4.82.68c3.21.45,6.41.87,9.61,1.51l9.58,1.58,9.53,1.82a527.63,527.63,0,0,1,414.53,414.53l1.83,9.54,1.58,9.58c.56,3.18,1,6.39,1.44,9.61l.67,4.81.33,2.4.28,2.41,1.1,9.66c.33,3.23.59,6.44.89,9.67l.42,4.85.31,4.84.31,4.84c.09,1.62.25,3.23.27,4.86l.37,9.72.09,2.43v7.29c.15,6.48,0,13-.08,19.44-.09,3.25-.24,6.47-.34,9.72,0,1.61-.12,3.24-.2,4.86l-.31,4.84-.31,4.85c-.1,1.61-.18,3.22-.34,4.84l-.86,9.67c-26.4,270.13-253.62,476.06-525,475.83v-48.28c246.58.21,453-186.85,477-432.26l.78-8.79c.16-1.51.21-3,.32-4.41l.29-4.4.29-4.41c0-1.51.12-3,.16-4.42.11-3,.24-5.9.32-8.84,0-5.9.22-11.8,0-17.7v-6.64l-.09-2.2-.34-8.84c0-1.51-.16-2.94-.25-4.41l-.29-4.4-.27-4.41-.39-4.4c-.28-2.93-.5-5.87-.8-8.8l-1-8.77-.25-2.18-.3-2.19-.62-4.38c-.41-2.91-.78-5.82-1.29-8.72l-1.51-8.7-1.66-8.66a475.76,475.76,0,0,0-47.35-132.32,481.11,481.11,0,0,0-196.9-196.91A476.17,476.17,0,0,0,2491.05,1258l-8.66-1.66-8.7-1.51c-2.9-.51-5.81-.89-8.72-1.3l-4.38-.62-2.19-.3-2.19-.24-8.78-1c-2.93-.3-5.85-.53-8.79-.8l-4.41-.39-4.4-.27-4.41-.27c-1.51-.08-2.94-.23-4.4-.26l-8.84-.33L2410,1249h-6.64c-5.9-.15-11.79,0-17.69,0-3,.07-5.91.23-8.84.32-1.51,0-3,.1-4.42.16l-4.41.29-4.41.29c-1.51.1-3,.15-4.4.31l-8.8.79a479.36,479.36,0,0,0-432.26,477Z"/><path id="Path_91" data-name="Path 91" class="cls-3" d="M2017.6,1728.28h-48.28c-.21-220.27,166.88-404.7,386.1-426.17l7.86-.7c1.31-.13,2.63-.18,3.94-.27l3.94-.24,3.93-.26c1.32,0,2.64-.09,4-.15,2.64-.09,5.26-.21,7.9-.3,5.28,0,10.56-.19,15.86,0h5.94l2,.08,7.91.3c1.31,0,2.62.15,3.93.22l4,.26,3.93.24,3.94.36c2.63.25,5.25.44,7.86.71l7.85.91,2,.21,1.94.27,3.91.55c2.6.36,5.2.69,7.8,1.16l7.77,1.28,7.72,1.51a425.1,425.1,0,0,1,118.11,42.24,430.05,430.05,0,0,1,176,176,424.74,424.74,0,0,1,42.25,118.1l1.51,7.73,1.28,7.77c.47,2.58.78,5.19,1.16,7.8l.56,3.91.27,1.94.23,2,.9,7.85c.28,2.62.47,5.24.71,7.86l.35,3.92.24,3.94.26,3.94c0,1.31.2,2.62.23,4l.3,7.91.07,2v6c.15,5.28,0,10.56,0,15.85,0,2.64-.19,5.28-.29,7.91,0,1.31-.09,2.64-.15,4l-.25,3.94-.25,3.94c-.09,1.31-.13,2.64-.28,3.94l-.7,7.86a428.16,428.16,0,0,1-426.13,386.1V2108.2a379.56,379.56,0,0,0,378.17-342.55l.62-7c.14-1.17.16-2.34.24-3.5l.23-3.51.22-3.5c0-1.16.09-2.34.14-3.51,0-2.36.19-4.7.26-7,0-4.71.19-9.42,0-14.11v-5.3l-.08-1.75-.26-7c0-1.18-.13-2.34-.19-3.51l-.23-3.5-.21-3.5-.31-3.48c-.23-2.33-.39-4.66-.64-7l-.8-7-.19-1.74-.24-1.73-.49-3.46c-.31-2.31-.61-4.62-1-6.91l-1.13-6.9-1.33-6.84a376.74,376.74,0,0,0-37.46-104.7A381.93,381.93,0,0,0,2576.63,1393a376.56,376.56,0,0,0-104.69-37.46l-6.86-1.33-6.9-1.13c-2.29-.42-4.6-.71-6.91-1l-3.45-.48-1.74-.24-1.73-.2-7-.8c-2.32-.24-4.65-.4-7-.63l-3.5-.32-3.5-.21-3.49-.22c-1.17,0-2.34-.18-3.5-.2l-7-.27h-7c-4.71-.14-9.41,0-14.12,0-2.34,0-4.69.18-7,.27l-3.52.14-3.5.22-3.5.23c-1.16.08-2.33.12-3.49.24l-7,.62a377.79,377.79,0,0,0-203.53,84.35,382.44,382.44,0,0,0-75.09,82.82,378,378,0,0,0-63.92,211Z"/><path id="Path_92" data-name="Path 92" class="cls-3" d="M2116.93,1728.26h-48.28a330.34,330.34,0,0,1,14.08-95.59,326.92,326.92,0,0,1,41.2-87,330.55,330.55,0,0,1,147.86-121.42,325.59,325.59,0,0,1,93.32-23.31l6-.55c1-.12,2-.13,3-.21l3-.2,3-.21,3-.1,6-.24c4.09,0,8.18-.17,12.27,0h6l6.11.22c1,0,2,.12,3,.18l3,.2,3,.18,3,.29c2,.19,4.05.33,6,.54l6,.69,1.51.17,1.51.21,3,.42c2,.29,4,.52,6,.89l6,1,5.93,1.15a325.52,325.52,0,0,1,90.53,32.37,330.82,330.82,0,0,1,135.33,135.32,325.33,325.33,0,0,1,32.38,90.53c.37,2,.76,4,1.15,5.93s.71,4,1,6,.6,4,.89,6l.44,3,.21,1.51.16,1.51q.33,3,.69,6c.21,2,.35,4.05.54,6l.29,3,.18,3,.2,3c0,1,.16,2,.18,3,.07,2,.15,4,.22,6v6c.14,4.08,0,8.17,0,12.26l-.22,6a27.26,27.26,0,0,1-.11,3l-.21,3-.19,3a27.16,27.16,0,0,1-.21,3q-.3,3-.54,6a326.68,326.68,0,0,1-73,176,331,331,0,0,1-71.76,65.07,326.85,326.85,0,0,1-182.55,55.28v-48.28a281.92,281.92,0,0,0,81.59-12.07,278.6,278.6,0,0,0,74.14-35.12,282.35,282.35,0,0,0,103.71-126.19,277.85,277.85,0,0,0,19.85-79.52c.14-1.73.29-3.45.47-5.17.11-.86.12-1.74.18-2.6l.17-2.59.18-2.6c0-.87,0-1.75.07-2.61l.21-5.23c0-3.5.15-7,0-10.56V1719c-.08-1.74-.15-3.49-.19-5.24,0-.87-.11-1.73-.15-2.59l-.17-2.6-.15-2.59-.24-2.58c-.17-1.72-.29-3.46-.47-5.18s-.41-3.42-.59-5.14l-.14-1.28-.18-1.29-.36-2.55c-.24-1.7-.44-3.4-.75-5.1s-.56-3.37-.83-5.08-.67-3.37-1-5a277,277,0,0,0-27.58-77.07,282.48,282.48,0,0,0-115.57-115.59,277.39,277.39,0,0,0-77.06-27.58c-1.7-.31-3.38-.63-5-1s-3.37-.61-5.09-.83-3.41-.51-5.09-.75l-2.57-.36-1.28-.18-1.28-.14c-1.72-.18-3.44-.38-5.15-.6s-3.45-.29-5.17-.46l-2.6-.24-2.6-.15-2.59-.17c-.88,0-1.74-.15-2.62-.15l-5.23-.19H2401c-3.5-.12-7,0-10.56,0l-5.24.19-2.61.09-2.6.18-2.59.17a12.64,12.64,0,0,0-2.6.18l-5.18.47A280.22,280.22,0,0,0,2116.8,1728Z"/><g id="Group_35" data-name="Group 35"><path id="Path_93" data-name="Path 93" class="cls-4" d="M1570.59,1728.28h-48.28l.18-16c0-2.67,0-5.33.15-8l.29-8,.31-8c.11-2.67.21-5.34.39-8l1-16c.17-2.67.41-5.34.64-8l.71-8,.72-8c.26-2.67.58-5.34.88-8,.6-5.34,1.21-10.67,1.87-16l2.22-16a871,871,0,0,1,28.16-126c.79-2.58,1.52-5.16,2.36-7.72l2.47-7.69,2.51-7.68,1.27-3.84,1.32-3.81,5.37-15.24c1.86-5.06,3.79-10.08,5.7-15.09,1-2.52,1.9-5,2.93-7.54l3-7.55,3-7.54,1.51-3.73,1.59-3.69,6.49-14.79c2.23-4.89,4.53-9.76,6.8-14.63s4.67-9.7,7.07-14.52,4.76-9.64,7.3-14.39,5-9.52,7.54-14.26l7.86-14.07c2.6-4.71,5.37-9.31,8.1-13.94l4.12-6.93c1.36-2.31,2.81-4.53,4.23-6.86,2.83-4.53,5.67-9.06,8.57-13.58l8.84-13.46a877.38,877.38,0,0,1,172.22-190q24.87-20.43,51.2-39l13.23-9.17c4.43-3,8.94-5.94,13.42-8.9,2.25-1.51,4.53-3,6.76-4.39l6.82-4.29,6.83-4.25,3.43-2.11,3.45-2.07a874.12,874.12,0,0,1,115.15-58.06c5-2,10-4.09,15-6l15.08-5.75,3.78-1.42L2100,905l7.54-2.68,7.64-2.67c2.53-.89,5.11-1.71,7.66-2.55,5.13-1.66,10.25-3.33,15.39-5l15.5-4.62,3.88-1.13,3.89-1.07,7.8-2.13,7.8-2.09c1.3-.35,2.62-.68,3.93-1l3.92-1a874.73,874.73,0,0,1,127-21.92l16-1.42c2.67-.24,5.34-.39,8-.57l8-.52,8-.48c2.67-.14,5.34-.23,8-.33,5.34-.21,10.69-.42,16-.56,10.66-.16,21.33-.36,32-.15l8,.1h4l4,.14,16,.62c2.67.09,5.34.3,8,.44l8,.5,8,.52,8,.68c5.34.49,10.68.92,16,1.51l16,1.83,4,.47,4,.54,8,1.1c5.33.75,10.64,1.51,15.94,2.38s10.56,1.75,15.92,2.66l15.86,3c5.29,1,10.56,2.14,15.81,3.28l7.89,1.74c1.31.3,2.63.57,3.94.89l3.92.95,15.69,3.85c5.21,1.35,10.41,2.77,15.6,4.18,2.6.72,5.21,1.4,7.79,2.17l7.75,2.29,7.74,2.31,3.87,1.18,3.84,1.23,15.38,5c5.09,1.74,10.17,3.53,15.25,5.33,2.53.91,5.08,1.78,7.54,2.73l7.55,2.85,7.54,2.88,3.77,1.51,3.74,1.51,15,6.13c4.94,2.11,9.88,4.28,14.81,6.44s9.81,4.42,14.7,6.7,9.76,4.52,14.57,6.94l14.44,7.19q7.15,3.74,14.28,7.55a876.94,876.94,0,0,1,359,359q3.78,7.13,7.55,14.27l7.2,14.44c2.41,4.8,4.66,9.7,6.94,14.57s4.52,9.75,6.7,14.7,4.33,9.85,6.44,14.8l6.12,15,1.51,3.74,1.51,3.77,2.88,7.55,2.86,7.54c.95,2.52,1.82,5.07,2.72,7.55,1.8,5.08,3.6,10.15,5.33,15.25l5,15.37,1.24,3.85,1.17,3.86,2.31,7.74,2.3,7.76c.77,2.58,1.51,5.19,2.17,7.78,1.42,5.19,2.84,10.4,4.18,15.6l3.85,15.7,1,3.92c.31,1.31.59,2.62.87,3.94l1.74,7.89c1.13,5.26,2.29,10.56,3.29,15.81l3,15.85q1.35,7.95,2.65,15.92c.91,5.3,1.63,10.56,2.38,16l1.11,8,.54,4,.46,4,1.83,16c.56,5.34,1,10.68,1.51,16l.68,8,.53,8,.49,8c.15,2.67.35,5.34.46,8l.62,16,.13,4v4l.11,8c.21,10.67,0,21.34-.15,32-.14,5.34-.36,10.68-.56,16-.11,2.67-.21,5.34-.33,8l-.49,8-.51,8c-.18,2.67-.33,5.34-.57,8l-1.42,16a874.63,874.63,0,0,1-21.92,127l-1,3.92c-.31,1.32-.64,2.61-1,3.91l-2.1,7.8-2.13,7.8-1.07,3.89-1.13,3.88-4.61,15.48c-1.6,5.15-3.29,10.26-4.95,15.39-.84,2.57-1.66,5.13-2.55,7.67l-2.67,7.63-2.7,7.54-1.36,3.81-1.42,3.77-5.75,15.08c-2,5-4,10-6,15a872.89,872.89,0,0,1-58.06,115.15l-2.06,3.45-2.11,3.43-4.26,6.83-4.28,6.82c-1.43,2.28-2.93,4.53-4.39,6.76-3,4.53-5.88,9.05-8.9,13.43l-9.18,13.23q-18.61,26.26-39,51.19A877.36,877.36,0,0,1,2884,2455.81l-13.46,8.85c-4.53,2.89-9.06,5.73-13.58,8.57-2.3,1.4-4.53,2.85-6.87,4.22l-6.92,4.12c-4.63,2.72-9.24,5.49-13.94,8.1l-14.08,7.86q-7.11,3.81-14.26,7.55c-4.74,2.53-9.58,4.9-14.39,7.3s-9.63,4.8-14.52,7-9.74,4.53-14.63,6.81l-14.79,6.49-3.7,1.6c-1.23.52-2.49,1-3.72,1.5l-7.55,3-7.54,3c-2.49,1-5,1.94-7.54,2.92-5,1.92-10.07,3.85-15.09,5.71l-15.24,5.39-3.82,1.32-3.83,1.27-7.68,2.51-7.69,2.47c-2.57.83-5.15,1.51-7.73,2.35A870.47,870.47,0,0,1,2525.48,2594l-16,2.22c-5.33.66-10.67,1.26-16,1.87-2.67.29-5.34.62-8,.87l-8,.74-8,.71c-2.67.23-5.34.47-8,.63l-16,1c-2.67.18-5.34.29-8,.39l-8,.32-8,.29c-2.67.09-5.34.1-8,.15l-16,.18v-48.28l15.09-.17c2.52,0,5,0,7.55-.15l7.54-.27,7.54-.3c2.52-.11,5-.2,7.55-.38l15.08-1c2.52-.15,5.06-.38,7.55-.61l7.54-.66,7.54-.69c2.52-.25,5-.55,7.55-.84,5-.57,10.08-1.13,15.09-1.76l15.08-2.1a823.32,823.32,0,0,0,119-26.61c2.43-.74,4.89-1.51,7.3-2.22l7.26-2.34,7.26-2.37,3.62-1.19,3.6-1.25,14.4-5.09c4.76-1.75,9.52-3.57,14.27-5.38,2.37-.92,4.77-1.8,7.11-2.76l7.07-2.87,7.06-2.9c1.18-.48,2.36-1,3.53-1.5l3.5-1.51,14-6.13c4.62-2.11,9.22-4.27,13.84-6.43s9.16-4.4,13.71-6.67,9.06-4.52,13.58-6.89l13.47-7.14,13.31-7.42c4.45-2.46,8.8-5.08,13.17-7.65l6.55-3.89c2.19-1.28,4.33-2.66,6.49-4,4.3-2.68,8.63-5.35,12.88-8.1l12.72-8.35a828.72,828.72,0,0,0,304.44-370.91c1.93-4.71,3.86-9.42,5.75-14.14l5.43-14.26,1.34-3.57,1.29-3.6,2.54-7.19,2.52-7.2c.85-2.4,1.6-4.83,2.4-7.24,1.51-4.85,3.16-9.67,4.68-14.53l4.36-14.64,1.07-3.66,1-3.68,2-7.37,2-7.36c.33-1.22.65-2.46,1-3.7l.92-3.71a826.91,826.91,0,0,0,20.7-120l1.34-15.09c.25-2.51.38-5,.55-7.54l.48-7.54.47-7.55c.13-2.52.21-5,.31-7.54.2-5,.41-10.09.53-15.09.15-10.09.35-20.17.15-30.25l-.11-7.54v-3.79l-.13-3.78-.59-15.09c-.08-2.52-.27-5.06-.43-7.55l-.46-7.54-.5-7.54-.65-7.55c-.45-5-.88-10.09-1.4-15.08l-1.72-15.09-.46-3.77-.51-3.78-1-7.54c-.71-5-1.4-10-2.25-15.09l-2.52-15.08-2.85-15c-.93-5-2-9.95-3.11-14.93l-1.62-7.46c-.29-1.23-.55-2.49-.83-3.72l-.89-3.71-3.64-14.82c-1.28-4.92-2.63-9.84-3.95-14.74-.68-2.46-1.31-4.92-2-7.36l-2.17-7.32-2.19-7.32-1.1-3.65-1.16-3.63-4.72-14.52c-1.65-4.81-3.35-9.61-5-14.41-.86-2.4-1.68-4.81-2.58-7.18l-2.7-7.13-2.72-7.14-1.37-3.56-1.43-3.53-5.78-14.12c-2-4.68-4.05-9.34-6-14s-4.18-9.26-6.32-13.88-4.28-9.22-6.56-13.76l-6.8-13.58-7.09-13.49a828.81,828.81,0,0,0-339.25-339.24l-13.49-7.09-13.57-6.81c-4.53-2.27-9.16-4.4-13.76-6.56s-9.21-4.31-13.88-6.32-9.31-4.09-14-6l-14.12-5.77-3.53-1.44-3.56-1.37-7.14-2.72-7.13-2.7c-2.37-.9-4.78-1.72-7.18-2.58-4.8-1.69-9.6-3.39-14.41-5L2647,940l-3.63-1.16-3.65-1.1-7.32-2.19-7.32-2.16c-2.45-.72-4.9-1.35-7.36-2-4.91-1.33-9.82-2.67-14.75-4l-14.81-3.62-3.71-.89c-1.24-.3-2.48-.55-3.73-.83l-7.45-1.63c-5-1.07-9.94-2.17-14.94-3.1l-15-2.86-15.09-2.5c-5-.86-10-1.51-15.08-2.25l-7.55-1-3.77-.51-3.77-.44L2483,906c-5-.53-10.09-.94-15.09-1.41l-7.54-.64-7.54-.5-7.55-.48c-2.52-.14-5.05-.34-7.54-.43l-15.09-.57-3.79-.13h-3.77l-7.54-.11c-10.08-.21-20.17,0-30.27.15-5,.14-10.09.35-15.09.53-2.52.11-5,.2-7.54.32l-7.54.46-7.55.49c-2.52.16-5.05.31-7.54.54l-15.09,1.34a826.91,826.91,0,0,0-120,20.7l-3.7.92c-1.24.31-2.47.62-3.7.95l-7.37,2-7.37,2-3.68,1-3.66,1.07-14.64,4.36c-4.85,1.51-9.68,3.11-14.52,4.68-2.42.8-4.85,1.51-7.25,2.4l-7.19,2.52-7.2,2.53L2113,952l-3.58,1.35-14.26,5.43c-4.72,1.87-9.43,3.81-14.13,5.73A828.64,828.64,0,0,0,1710.14,1269l-8.36,12.72c-2.74,4.27-5.42,8.58-8.1,12.88-1.33,2.16-2.7,4.3-4,6.49l-3.89,6.55c-2.56,4.37-5.19,8.72-7.65,13.17l-7.42,13.31-7.14,13.47c-2.39,4.53-4.63,9-6.89,13.58s-4.53,9-6.65,13.71-4.32,9.21-6.43,13.84l-6.13,14-1.51,3.5c-.5,1.16-1,2.35-1.51,3.52l-2.89,7.06-2.87,7.06c-1,2.35-1.84,4.74-2.76,7.1-1.81,4.76-3.64,9.51-5.39,14.29l-5.08,14.4-1.25,3.6-1.2,3.62-2.36,7.26-2.34,7.25c-.79,2.42-1.51,4.88-2.22,7.31a823,823,0,0,0-26.61,119l-2.1,15.08c-.63,5-1.19,10.08-1.76,15.09-.28,2.52-.58,5-.83,7.55l-.7,7.54-.66,7.54c-.21,2.52-.45,5.06-.6,7.55l-1,15.08c-.16,2.52-.27,5.06-.36,7.55l-.3,7.54-.27,7.54c-.1,2.52-.1,5-.15,7.55Z"/><path id="Path_94" data-name="Path 94" class="cls-4" d="M1669.92,1728.28h-48.28l.17-14.21c0-2.37,0-4.74.13-7.11l.26-7.1.27-7.11c.1-2.37.19-4.74.35-7.1l.91-14.22c.13-2.37.34-4.73.56-7.1l.63-7.11.65-7.1c.22-2.37.51-4.73.78-7.09.54-4.73,1.08-9.46,1.66-14.19l2-14.15a773.45,773.45,0,0,1,25-111.64c.7-2.28,1.35-4.53,2.09-6.85l2.2-6.82,2.22-6.81,1.11-3.39,1.18-3.38,4.76-13.51c1.65-4.52,3.37-8.93,5.06-13.39.85-2.22,1.67-4.53,2.58-6.67l2.7-6.62,2.71-6.63c.45-1.1.91-2.2,1.37-3.3l1.42-3.29,5.75-13.11c2-4.33,4-8.65,6-13s4.13-8.6,6.24-12.87,4.23-8.55,6.47-12.75l6.69-12.64,7-12.48c2.29-4.18,4.77-8.25,7.18-12.35l3.65-6.14c1.21-2.06,2.49-4.06,3.74-6,2.52-4,5-8.09,7.55-12.07l7.84-11.93a777.62,777.62,0,0,1,348-285.67c4.41-1.81,8.83-3.62,13.26-5.39l13.39-5.1,3.34-1.26,3.37-1.21,6.74-2.38,6.76-2.37c2.25-.8,4.53-1.51,6.79-2.25,4.53-1.51,9-3,13.58-4.39l13.72-4.09,3.45-1,3.45-.95,6.91-1.87,6.91-1.86c1.15-.31,2.31-.6,3.46-.89l3.47-.86a775,775,0,0,1,112.59-19.43l14.21-1.25c2.37-.23,4.74-.35,7.11-.52l7.1-.45,7.11-.44c2.37-.12,4.74-.19,7.1-.3,4.74-.18,9.48-.38,14.21-.5,9.48-.13,18.94-.33,28.41-.13l7.11.09h3.55l3.56.12,14.21.54c2.37.08,4.74.26,7.11.4l7.1.45,7.11.47,7.1.6c4.74.42,9.48.81,14.21,1.31l14.18,1.62,3.55.42,3.55.48,7.07,1c4.73.67,9.43,1.32,14.14,2.11l14.11,2.36,14,2.67c4.7.87,9.34,1.9,14,2.91l7,1.51c1.16.26,2.34.5,3.48.78l3.47.83,13.91,3.41c4.62,1.21,9.22,2.46,13.83,3.71,2.3.64,4.61,1.24,6.89,1.92l6.87,2,6.86,2,3.43,1,3.41,1.1,13.58,4.44c4.52,1.5,9,3.13,13.57,4.72,2.25.8,4.53,1.51,6.75,2.41l6.7,2.54L2679,1005l3.34,1.28,3.32,1.34,13.24,5.42c4.39,1.87,8.75,3.78,13.13,5.7s8.69,3.92,13,5.93,8.66,4,12.91,6.15l12.82,6.39,12.64,6.65a777.71,777.71,0,0,1,318.34,318.34l6.66,12.66,6.36,12.8c2.15,4.25,4.12,8.6,6.16,12.91s4,8.65,5.93,13,3.83,8.74,5.7,13.13L3118,1440l1.34,3.32,1.3,3.34,2.55,6.68,2.53,6.7c.84,2.23,1.61,4.53,2.41,6.74,1.59,4.53,3.19,9.06,4.73,13.58l4.42,13.58,1.1,3.41,1,3.43,2.06,6.86,2,6.86c.68,2.28,1.27,4.53,1.92,6.9,1.25,4.6,2.52,9.2,3.71,13.82l3.4,13.91.84,3.47c.29,1.16.53,2.33.79,3.5l1.51,7c1,4.66,2,9.32,2.91,14l2.67,14.05,2.35,14.1c.82,4.71,1.51,9.42,2.11,14.14l1,7.08.49,3.54.42,3.55,1.61,14.18c.5,4.72.88,9.47,1.31,14.2l.62,7.1.47,7.11.45,7.1c.14,2.37.32,4.74.4,7.11l.54,14.21.12,3.55v3.54l.1,7.11c.2,9.47,0,19-.13,28.41-.12,4.73-.32,9.47-.5,14.21-.11,2.37-.18,4.74-.3,7.1l-.44,7.11-.45,7.1c-.17,2.37-.29,4.74-.51,7.11l-1.26,14.21a775.1,775.1,0,0,1-19.43,112.6l-.84,3.47c-.29,1.16-.58,2.32-.9,3.47l-1.85,6.91-1.87,6.91-1,3.46-1,3.44-4.09,13.71c-1.42,4.53-2.91,9-4.39,13.58-.76,2.26-1.51,4.53-2.25,6.79l-2.37,6.76-2.38,6.76-1.21,3.36-1.25,3.35-5.1,13.38c-1.76,4.44-3.58,8.85-5.38,13.27a777.62,777.62,0,0,1-285.67,348l-11.93,7.84c-4,2.57-8.06,5.07-12.08,7.55-2,1.25-4,2.53-6,3.74l-6.14,3.64c-4.1,2.41-8.18,4.87-12.36,7.18l-12.47,7-12.64,6.69c-4.2,2.25-8.48,4.33-12.75,6.45s-8.53,4.26-12.87,6.25-8.63,4-13,6l-13.11,5.75-3.27,1.42c-1.11.47-2.21.92-3.31,1.37l-6.62,2.72-6.62,2.7c-2.21.9-4.45,1.72-6.67,2.58-4.53,1.69-8.92,3.41-13.4,5l-13.5,4.77-3.38,1.18-3.4,1.11-6.8,2.22-6.82,2.2c-2.26.74-4.53,1.39-6.85,2.09a773.88,773.88,0,0,1-111.65,25l-14.15,2c-4.72.59-9.44,1.12-14.18,1.66-2.37.26-4.72.54-7.09.77l-7.11.65-7.1.63c-2.37.2-4.74.42-7.11.56l-14.21.91c-2.37.15-4.73.25-7.1.34l-7.11.27-7.1.26c-2.37.09-4.74.09-7.11.14l-14.21.16v-48.28l13.34-.15c2.22,0,4.43,0,6.67-.12l6.66-.24,6.67-.26c2.22-.09,4.45-.16,6.67-.31l13.33-.85c2.22-.14,4.45-.33,6.67-.53l6.67-.59,6.65-.6c2.22-.21,4.44-.48,6.65-.72,4.44-.52,8.87-1,13.3-1.51L2504,2448a724.21,724.21,0,0,0,104.63-23.42c2.15-.65,4.29-1.25,6.42-2l6.39-2,6.39-2.08,3.18-1.06,3.17-1.1,12.66-4.53c4.19-1.5,8.37-3.15,12.55-4.73,2.08-.82,4.2-1.51,6.26-2.43l6.22-2.54,6.2-2.53c1-.42,2.07-.84,3.09-1.28l3-1.34,12.28-5.39c4.08-1.86,8.12-3.76,12.16-5.66s8.06-3.88,12.07-5.85,8-4,12-6l11.84-6.27,11.7-6.54c3.91-2.15,7.73-4.52,11.59-6.73l5.77-3.41c1.91-1.13,3.8-2.33,5.7-3.51,3.79-2.37,7.54-4.71,11.34-7.12l11.18-7.37a729.28,729.28,0,0,0,268-326.41c1.69-4.14,3.39-8.28,5.05-12.43l4.77-12.54,1.19-3.14,1.12-3.15,2.23-6.32,2.21-6.34c.76-2.11,1.41-4.24,2.12-6.37,1.38-4.25,2.77-8.51,4.11-12.78l3.83-12.87.95-3.21.9-3.23,1.76-6.47,1.74-6.49c.3-1.07.57-2.16.82-3.24l.8-3.26a726.66,726.66,0,0,0,18.21-105.61l1.18-13.33c.21-2.22.32-4.43.48-6.67l.43-6.67.4-6.66c.11-2.22.18-4.46.28-6.67.16-4.45.34-8.9.46-13.36.13-8.88.32-17.77.13-26.67l-.1-6.67v-3.33l-.12-3.34-.51-13.35c0-2.22-.26-4.45-.37-6.67l-.43-6.67-.44-6.66-.57-6.67c-.41-4.44-.77-8.89-1.22-13.33l-1.51-13.3-.4-3.32-.45-3.32-.92-6.64c-.62-4.42-1.22-8.84-2-13.25l-2.2-13.21-2.52-13.17c-.8-4.41-1.78-8.77-2.73-13.13l-1.43-6.55c-.24-1.08-.47-2.19-.74-3.27l-.79-3.26-3.18-13c-1.13-4.33-2.31-8.64-3.48-13-.61-2.15-1.15-4.31-1.8-6.47l-1.9-6.43-1.91-6.42-1-3.22-1-3.2-4.14-12.76c-1.51-4.24-3-8.45-4.42-12.67-.76-2.1-1.51-4.23-2.27-6.32l-2.36-6.28-2.39-6.28-1.21-3.12-1.26-3.11-5.09-12.42c-1.75-4.11-3.56-8.2-5.35-12.29s-3.67-8.15-5.55-12.21-3.76-8.11-5.78-12.07l-6-12.07-6.24-11.86a729.55,729.55,0,0,0-298.58-298.56l-11.86-6.25-12.07-6c-4-2-8.06-3.86-12.07-5.76s-8.1-3.8-12.21-5.57-8.19-3.59-12.29-5.36l-12.42-5.08-3.11-1.25-3.12-1.21-6.28-2.38-6.28-2.37c-2.08-.8-4.21-1.51-6.3-2.27-4.23-1.5-8.44-3-12.68-4.43l-12.76-4.15-3.2-1-3.21-1-6.43-1.92-6.44-1.9c-2.14-.65-4.31-1.19-6.47-1.79-4.31-1.16-8.63-2.36-13-3.49l-13-3.18-3.26-.79c-1.08-.27-2.18-.48-3.27-.73l-6.56-1.44c-4.38-1-8.74-1.93-13.13-2.73l-13.17-2.52-13.22-2.2c-4.41-.76-8.83-1.36-13.26-2l-6.62-.92-3.32-.45-3.32-.39-13.31-1.51c-4.43-.47-8.89-.83-13.32-1.22l-6.67-.58-6.67-.44-6.66-.42c-2.22-.12-4.45-.3-6.67-.37l-13.34-.52-3.33-.12h-3.33l-6.67-.09c-8.89-.18-17.77,0-26.68.12-4.45.12-8.89.3-13.34.47-2.21.09-4.44.16-6.66.27l-6.67.41-6.67.42c-2.21.15-4.45.27-6.66.48l-13.33,1.18a726.66,726.66,0,0,0-105.61,18.21l-3.26.8c-1.08.25-2.17.54-3.24.83l-6.49,1.73-6.47,1.77-3.23.89-3.21,1-12.87,3.83c-4.27,1.33-8.53,2.73-12.78,4.12-2.13.71-4.26,1.36-6.37,2.11l-6.34,2.22-6.32,2.23-3.15,1.13-3.14,1.18-12.54,4.78c-4.14,1.65-8.28,3.37-12.43,5a729.36,729.36,0,0,0-326.42,268l-7.36,11.19c-2.41,3.76-4.75,7.55-7.12,11.35-1.17,1.9-2.38,3.77-3.51,5.7l-3.43,5.76c-2.26,3.85-4.53,7.67-6.73,11.59L1757.7,1381l-6.28,11.84c-2.11,3.94-4.07,8-6,12s-4,8-5.86,12.07-3.78,8.1-5.65,12.16l-5.39,12.28-1.34,3c-.44,1-.86,2.07-1.28,3.09l-2.54,6.2-2.53,6.22c-.86,2.07-1.62,4.16-2.43,6.26-1.58,4.18-3.18,8.36-4.74,12.55l-4.52,12.66-1.11,3.17-1,3.18-2.08,6.39-2.07,6.38c-.69,2.12-1.3,4.28-2,6.42a724.58,724.58,0,0,0-23.4,104.64l-1.85,13.27c-.56,4.44-1,8.88-1.51,13.31-.25,2.22-.51,4.44-.74,6.65l-.61,6.67-.59,6.67c-.19,2.22-.39,4.45-.52,6.67l-.85,13.34c-.15,2.22-.24,4.45-.31,6.67l-.26,6.67L1670,1708c-.1,2.21-.1,4.45-.13,6.66Z"/><path id="Path_95" data-name="Path 95" class="cls-4" d="M1769.26,1728.28H1721l.15-12.42c0-2.07,0-4.13.12-6.2l.22-6.22.25-6.2c0-2.06.15-4.13.3-6.2l.78-12.42c.13-2.06.32-4.13.49-6.2l.56-6.2.56-6.2c.19-2.07.45-4.12.67-6.19.47-4.11.93-8.25,1.51-12.37l1.72-12.34a677.47,677.47,0,0,1,410.38-526c3.85-1.51,7.7-3.17,11.56-4.69l11.65-4.44,2.91-1.1,2.94-1,5.89-2.08,5.88-2.07c2-.69,3.95-1.31,5.93-2,4-1.28,7.9-2.58,11.88-3.83l11.94-3.56,3-.89,3-.83,6-1.63,6-1.63c1-.27,2-.53,3-.77l3-.74a675.78,675.78,0,0,1,98.16-16.93l12.4-1.1c2.07-.19,4.13-.3,6.2-.44l6.2-.39,6.22-.39c2.06-.11,4.13-.17,6.2-.26,4.13-.15,8.28-.33,12.41-.44,8.29-.1,16.6-.28,24.82-.1l6.22.07h3.11l3.11.11,12.41.47c2.07,0,4.14.22,6.2.34l6.2.4,6.2.4,6.2.55c4.13.37,8.27.71,12.4,1.13l12.38,1.42,3,.36,3,.42,6.17.86c4.1.57,8.22,1.13,12.32,1.84l12.29,2,12.25,2.34c4.08.76,8.14,1.66,12.2,2.53l6,1.33c1,.23,2,.44,3,.68l3,.74,12.07,3c4,1.05,8,2.15,12.07,3.24,2,.56,4,1.07,6,1.66l6,1.78,6,1.78,3,.89,3,1,11.85,3.86c3.94,1.35,7.86,2.75,11.77,4.12,2,.71,3.92,1.36,5.87,2.11l5.82,2.21,5.83,2.21,2.91,1.12L2649,1100l11.54,4.72c3.82,1.63,7.64,3.32,11.44,5s7.54,3.41,11.34,5.17,7.55,3.49,11.26,5.36l11.16,5.55,11,5.81a678.31,678.31,0,0,1,277.61,277.61l5.81,11,5.55,11.16c1.88,3.71,3.59,7.55,5.35,11.26s3.53,7.54,5.18,11.34,3.35,7.55,5,11.44l4.72,11.54,1.18,2.88,1.11,2.92,2.22,5.82,2.2,5.82c.74,2,1.41,3.91,2.11,5.87,1.39,3.93,2.78,7.83,4.12,11.77l3.85,11.86.95,3,.9,3,1.78,6,1.77,6c.6,2,1.1,4,1.66,6,1.09,4,2.19,8,3.24,12.07l3,12.07.74,3c.24,1,.45,2,.68,3l1.32,6c.88,4.06,1.8,8.12,2.55,12.2l2.34,12.26,2,12.29c.71,4.09,1.27,8.21,1.84,12.33l.86,6.17.42,3,.36,3,1.42,12.37c.43,4.14.77,8.26,1.13,12.39l.54,6.2.41,6.2.39,6.2c.13,2.07.29,4.14.35,6.21l.47,12.41.1,3.11v3.11l.1,6.2c.18,8.27,0,16.6-.12,24.84-.11,4.13-.29,8.28-.44,12.41-.1,2.07-.15,4.14-.26,6.2l-.39,6.2-.39,6.21c-.15,2.06-.24,4.13-.45,6.2l-1.11,12.4A674,674,0,0,1,3054,1892.5l-.74,3c-.24,1-.5,2-.77,3l-1.63,6-1.63,6-.81,3-.89,3-3.56,11.95c-1.24,4-2.54,7.92-3.82,11.87-.65,2-1.27,4-2,5.92l-2.07,5.88-2.08,5.89-1.05,2.94-1.11,2.91-4.43,11.66c-1.51,3.86-3.12,7.69-4.69,11.56a675.91,675.91,0,0,1-526,410.37l-12.34,1.72c-4.12.52-8.24,1-12.37,1.51-2.07.23-4.12.49-6.19.68l-6.2.56-6.19.54c-2.07.18-4.14.38-6.2.5l-12.42.79c-2.07.15-4.13.22-6.2.3l-6.22.24-6.22.23c-2.06.07-4.13,0-6.19.12l-12.42.15v-48.28l11.54-.14c1.91,0,3.84,0,5.76-.1l5.77-.21,5.78-.23c1.93,0,3.84-.15,5.76-.29l11.53-.74c1.93-.1,3.84-.28,5.76-.45l5.75-.51,5.77-.52c1.91-.18,3.83-.42,5.75-.63,3.83-.44,7.66-.86,11.48-1.34l11.45-1.6a629.15,629.15,0,0,0,488.48-381.08c1.51-3.58,2.93-7.14,4.37-10.73l4.11-10.82,1-2.7,1-2.73,1.93-5.46,1.91-5.46c.65-1.83,1.21-3.67,1.81-5.5,1.2-3.66,2.4-7.33,3.57-11l3.3-11.1.81-2.78.77-2.79,1.51-5.58,1.51-5.59c.26-.93.5-1.87.73-2.8l.68-2.81a628.09,628.09,0,0,0,15.72-91.14l1-11.51c.18-1.92.28-3.85.41-5.77l.37-5.76.35-5.76c.1-1.92.15-3.85.24-5.76.15-3.85.32-7.7.42-11.55.1-7.69.28-15.39.11-23.08V1712l-.11-2.88-.43-11.54c0-1.92-.21-3.85-.32-5.76l-.36-5.77-.38-5.76-.5-5.76c-.34-3.83-.64-7.68-1-11.51l-1.31-11.5-.34-2.86-.39-2.87-.8-5.73c-.54-3.82-1-7.64-1.7-11.45l-1.89-11.41-2.17-11.38A628.39,628.39,0,0,0,2520.26,1112l-11.36-2.18-11.42-1.9c-3.8-.66-7.63-1.17-11.45-1.7l-5.73-.8-2.87-.39-2.86-.33-11.5-1.32c-3.83-.4-7.68-.71-11.51-1l-5.76-.5-5.77-.38-5.76-.36c-1.92-.11-3.83-.27-5.77-.32l-11.54-.44-2.88-.1h-2.88l-5.78-.08c-7.69-.16-15.39,0-23.08.11-3.85.1-7.7.27-11.54.41-1.92.07-3.85.13-5.78.24l-5.77.36-5.76.36c-1.92.14-3.85.23-5.77.41l-11.51,1a626.73,626.73,0,0,0-91.14,15.72l-2.81.69c-.93.23-1.87.47-2.8.72l-5.59,1.51-5.58,1.51-2.79.77-2.78.83-11.11,3.31c-3.68,1.16-7.35,2.36-11,3.56-1.83.6-3.68,1.17-5.49,1.81l-5.46,1.91-5.47,1.93-2.73,1-2.7,1-10.82,4.12c-3.57,1.44-7.15,2.9-10.71,4.36A627.66,627.66,0,0,0,1776,1636.15l-1.6,11.46c-.47,3.83-.89,7.66-1.32,11.48-.21,1.91-.46,3.83-.64,5.75l-.51,5.76-.51,5.76c-.17,1.92-.35,3.83-.45,5.76l-.74,11.53c-.14,1.92-.21,3.85-.29,5.76l-.23,5.77-.21,5.76c-.07,1.91,0,3.85-.1,5.76Z"/><path id="Path_96" data-name="Path 96" class="cls-4" d="M1868.6,1728.34h-48.18l.14-10.56c0-1.77,0-3.55.09-5.31l.19-5.32.2-5.31c0-1.76.13-3.54.26-5.31L1822,1686c.1-1.76.26-3.53.43-5.29l.47-5.3.46-5.29c.17-1.77.39-3.52.59-5.28.41-3.52.79-7,1.23-10.56l1.51-10.56a577.72,577.72,0,0,1,350.07-448.78c3.29-1.34,6.56-2.7,9.85-4l9.94-3.78,2.49-.95,2.51-.88,5-1.77,5-1.76c1.67-.59,3.36-1.11,5-1.66,3.39-1.09,6.73-2.21,10.11-3.28l10.2-3,2.55-.76,2.56-.69,5.14-1.39,5.13-1.39c.85-.24,1.7-.45,2.57-.66l2.58-.64a577.47,577.47,0,0,1,83.71-14.44l10.56-.93c1.76-.18,3.53-.26,5.3-.38l5.29-.33,5.3-.33c1.77-.09,3.53-.15,5.31-.21,3.53-.14,7.08-.29,10.56-.38,7.08,0,14.15-.26,21.25-.09h8l2.66.1,10.56.41c1.76,0,3.53.19,5.3.3l5.29.33,5.31.33,5.3.47c3.53.32,7.06.61,10.56,1l10.56,1.2,2.64.31,2.64.36,5.27.74c3.5.49,7,1,10.56,1.51l10.56,1.73,10.44,2a577.25,577.25,0,0,1,453.6,453.62l2,10.44,1.74,10.48c.61,3.49,1.07,7,1.51,10.56l.72,5.27.36,2.64.32,2.64,1.21,10.56c.36,3.52.65,7.06,1,10.56l.47,5.3.33,5.29.33,5.3c.11,1.76.26,3.53.31,5.31l.4,10.56.11,2.65v8c.17,7.08,0,14.15-.09,21.23-.09,3.54-.26,7.08-.38,10.56,0,1.76-.12,3.54-.21,5.31l-.33,5.3-.33,5.29c-.12,1.77-.19,3.53-.38,5.3l-.93,10.56a577.34,577.34,0,0,1-14.44,83.7l-.63,2.58c-.2.86-.43,1.72-.67,2.58l-1.39,5.13-1.38,5.13-.71,2.57-.76,2.54-3,10.2c-1.05,3.38-2.17,6.75-3.26,10.11-.56,1.68-1.07,3.38-1.66,5l-1.76,5-1.77,5-.89,2.51-.93,2.49-3.78,9.94c-1.31,3.29-2.67,6.56-4,9.85a576.53,576.53,0,0,1-448.71,350l-10.57,1.51c-3.51.43-7,.81-10.56,1.22-1.76.19-3.51.42-5.28.59l-5.29.46-5.3.47c-1.77.15-3.53.32-5.3.42l-10.56.68c-1.76.14-3.53.2-5.31.26l-5.31.2-5.31.19c-1.77,0-3.55,0-5.31.09l-10.57.14V2257c272.15.21,500-206.26,526.48-477.11l.86-9.7c.16-1.62.22-3.25.33-4.86l.32-4.86.31-4.86c.08-1.61.14-3.24.2-4.87.12-3.24.27-6.49.36-9.75,0-6.5.24-13,0-19.49v-7.3l-.09-2.45-.36-9.73c0-1.63-.18-3.24-.28-4.86l-.31-4.86-.32-4.85-.42-4.86c-.3-3.23-.54-6.47-.89-9.7l-1.11-9.67-.27-2.42-.33-2.41-.68-4.83c-.45-3.21-.86-6.44-1.43-9.62l-1.58-9.62-1.85-9.56a525.15,525.15,0,0,0-52.28-146.14A530.8,530.8,0,0,0,2647,1261.39a525.45,525.45,0,0,0-146.14-52.27l-9.57-1.84-9.61-1.59c-3.19-.57-6.41-1-9.62-1.51l-4.83-.68-2.41-.33-2.42-.27-9.68-1.1c-3.23-.33-6.47-.59-9.7-.89l-4.86-.42-4.86-.32-4.86-.3c-1.61-.09-3.25-.24-4.86-.27l-9.75-.36-2.42-.09h-7.3c-6.5-.16-13,0-19.5.07-3.24.09-6.48.24-9.74.35-1.62,0-3.25.12-4.88.19l-4.85.32-4.86.32c-1.62.1-3.25.18-4.86.34l-9.7.86c-270.87,26.47-477.35,254.31-477.13,526.46Z"/><path id="Path_97" data-name="Path 97" class="cls-4" d="M1967.93,1728.28h-48.28c-.22-245.84,186.28-451.66,430.95-475.6l8.77-.79c1.51-.15,2.93-.21,4.41-.3l4.39-.27,4.4-.29,4.41-.16c2.94-.11,5.87-.24,8.81-.32,5.88,0,11.77-.22,17.65,0h6.61l2.2.09,8.81.33c1.51,0,2.93.17,4.41.26l4.4.29,4.39.27,4.39.39c2.93.27,5.86.48,8.77.8l8.74,1,2.19.24,2.17.3,4.36.62c2.9.41,5.81.78,8.7,1.3l8.68,1.43,8.63,1.66a474.25,474.25,0,0,1,131.92,47.19A479.74,479.74,0,0,1,2819.13,1503,474.48,474.48,0,0,1,2866.32,1635l1.66,8.63,1.44,8.68c.51,2.88.89,5.79,1.29,8.71l.62,4.35.3,2.18.25,2.19,1,8.75c.32,2.91.53,5.83.8,8.76l.39,4.39.27,4.41.29,4.39c.07,1.51.21,2.93.26,4.4l.33,8.82.09,2.2v6.61c.15,5.88,0,11.76,0,17.65-.09,2.94-.22,5.87-.32,8.81,0,1.51-.1,2.94-.16,4.41l-.29,4.4-.27,4.39c-.11,1.51-.15,2.93-.32,4.39l-.78,8.77a478,478,0,0,1-475.62,431v-48.28c221,.2,406.06-167.45,427.6-387.4l.69-7.89c.15-1.32.18-2.64.27-4l.26-4,.26-4c0-1.33.1-2.64.15-4,.09-2.64.21-5.29.29-7.93,0-5.3.21-10.56,0-15.9v-6l-.08-2-.3-7.94c0-1.32-.15-2.64-.22-4l-.26-3.95-.25-4-.36-3.94c-.24-2.63-.44-5.27-.71-7.89l-.9-7.86-.21-2-.28-2-.56-3.93c-.36-2.61-.69-5.22-1.16-7.81l-1.28-7.8-1.51-7.76a426,426,0,0,0-42.4-118.51,431.43,431.43,0,0,0-176.52-176.52,426.05,426.05,0,0,0-118.49-42.4l-7.76-1.51-7.8-1.28c-2.6-.46-5.2-.8-7.82-1.16l-3.92-.56-2-.27-2-.22-7.86-.91c-2.62-.27-5.27-.47-7.89-.71l-3.94-.36-3.95-.24-3.95-.26c-1.33,0-2.64-.21-4-.23l-7.94-.3-2-.07h-6c-5.3-.15-10.56,0-15.9,0-2.66.07-5.3.21-7.93.3l-4,.15-3.95.26-4,.24c-1.31.09-2.64.13-3.95.27l-7.89.71A429.7,429.7,0,0,0,1968,1728.32Z"/><path id="Path_98" data-name="Path 98" class="cls-4" d="M2067.27,1728.28H2019a379.16,379.16,0,0,1,233.72-349.88,375.33,375.33,0,0,1,107.52-26.85l7-.62c1.16-.12,2.34-.17,3.48-.24l3.49-.22,3.5-.22c1.16,0,2.34-.09,3.5-.14l7-.27c4.69,0,9.38-.18,14.06,0h7l7,.26c1.18,0,2.34.13,3.5.21l3.49.23,3.48.21,3.49.31c2.31.22,4.64.38,6.95.62l6.92.8,1.74.18,1.72.24,3.46.49c2.29.31,4.6.6,6.89,1l6.87,1.13,6.83,1.32a374.93,374.93,0,0,1,104.3,37.31,380.43,380.43,0,0,1,155.66,155.66,375.05,375.05,0,0,1,37.3,104.29l1.32,6.84,1.13,6.86c.42,2.28.71,4.53,1,6.9l.49,3.45.24,1.72.18,1.74.8,6.92c.24,2.31.41,4.65.63,7l.32,3.48.21,3.49.23,3.48c0,1.17.18,2.33.21,3.5l.27,7v7c.13,4.69,0,9.37,0,14.06l-.27,7a29.26,29.26,0,0,1-.14,3.5l-.23,3.5L2775,1755c-.07,1.17-.12,2.34-.24,3.49l-.62,7a376.41,376.41,0,0,1-84,202.76,380.52,380.52,0,0,1-82.5,74.81,376.65,376.65,0,0,1-210.19,63.67v-48.28a331.8,331.8,0,0,0,96-14.14,328.17,328.17,0,0,0,87.37-41.39,331.88,331.88,0,0,0,121.95-148.43,327.28,327.28,0,0,0,23.4-93.72q.26-3,.54-6c.12-1,.14-2,.21-3l.2-3,.21-3a29.87,29.87,0,0,1,.1-3l.25-6.13c0-4.1.16-8.2,0-12.31v-6c-.09-2-.17-4.06-.23-6.13,0-1-.12-2-.18-3l-.19-3-.18-3-.29-3c-.2-2-.33-4.06-.54-6s-.48-4-.69-6l-.17-1.5-.21-1.51-.42-3c-.29-2-.52-4-.9-6s-.66-4-1-6-.79-4-1.15-6A327.1,327.1,0,0,0,2689,1573a332.25,332.25,0,0,0-135.91-135.91,326.74,326.74,0,0,0-90.87-32.52l-6-1.16-6-1c-2-.37-4-.62-6-.89l-3-.42-1.51-.21-1.51-.17-6-.69c-2-.21-4.06-.35-6-.54l-3-.29-3-.18-3-.2c-1,0-2-.16-3-.18l-6.13-.22h-6c-4.11-.14-8.21,0-12.31,0l-6.13.24-3,.1-3,.21-3,.18a23,23,0,0,0-3,.22l-6,.54a328.07,328.07,0,0,0-176.81,73.3,332.1,332.1,0,0,0-65.34,72.07,328.25,328.25,0,0,0-55.52,183.37Z"/><path id="Path_99" data-name="Path 99" class="cls-4" d="M2166.6,1728.28h-48.28a280.53,280.53,0,0,1,11.95-81.19,277,277,0,0,1,34.94-73.74,280.77,280.77,0,0,1,125.54-103.18,276.17,276.17,0,0,1,79.1-19.75c1.72-.14,3.44-.29,5.15-.47.84-.11,1.72-.12,2.58-.17l2.58-.16,2.59-.18,2.6-.09,5.21-.2c3.48,0,7-.15,10.47,0h5.22c1.73.08,3.47.15,5.2.2.88,0,1.74.1,2.6.15l2.6.16,2.59.15,2.58.25c1.71.16,3.44.27,5.15.45s3.41.41,5.11.59l1.28.13,1.27.18,2.55.37c1.69.24,3.4.42,5.07.75s3.36.56,5.05.81,3.34.67,5,1a276.08,276.08,0,0,1,76.67,27.43,281,281,0,0,1,115,115,275.76,275.76,0,0,1,27.43,76.67c.31,1.69.64,3.36,1,5s.61,3.35.81,5,.52,3.38.76,5.07l.36,2.54.18,1.26.14,1.28c.18,1.72.38,3.42.59,5.12s.28,3.44.45,5.14l.24,2.58.15,2.6.17,2.58c0,.86.15,1.72.15,2.59,0,1.74.11,3.47.2,5.21v5.22c.12,3.48,0,7,0,10.47l-.21,5.2a22.69,22.69,0,0,1-.1,2.61l-.18,2.58-.15,2.6a12.4,12.4,0,0,1-.18,2.58c-.16,1.71-.31,3.43-.45,5.14a278.79,278.79,0,0,1-277.87,251.54v-48.28a232.07,232.07,0,0,0,67.2-9.88,228.77,228.77,0,0,0,60.91-28.86A232.78,232.78,0,0,0,2611,1816.45a228.37,228.37,0,0,0,16.3-65.3c.11-1.43.23-2.85.37-4.27.09-.71.09-1.43.15-2.14l.14-2.16.15-2.14v-2.17l.16-4.33c0-2.91.14-5.81,0-8.72v-4.36c-.07-1.45-.12-2.89-.16-4.33,0-.73-.09-1.44-.14-2.16l-.13-2.16-.11-2.15-.21-2.13c-.15-1.42-.22-2.85-.38-4.27s-.34-2.82-.49-4.24l-.11-1.05a10,10,0,0,0-.15-1.06l-.32-2.1c-.19-1.4-.34-2.82-.62-4.19s-.46-2.79-.67-4.18-.56-2.76-.82-4.15a227.55,227.55,0,0,0-22.63-63.26,232.83,232.83,0,0,0-95.25-95.25,227.55,227.55,0,0,0-63.26-22.63c-1.38-.25-2.77-.52-4.15-.81s-2.77-.52-4.18-.68-2.79-.42-4.19-.62l-2.1-.3-1.06-.15-1-.11c-1.42-.14-2.84-.31-4.24-.5s-2.84-.22-4.26-.37l-2.13-.22-2.16-.12-2.15-.13c-.73,0-1.44-.14-2.16-.14-1.45,0-2.9-.05-4.33-.15h-4.36c-2.92-.12-5.83,0-8.74,0l-4.33.18h-2.18l-2.14.15-2.14.14a10,10,0,0,0-2.15.15c-1.42.15-2.84.28-4.27.38a228,228,0,0,0-65.29,16.29,230.5,230.5,0,0,0-142.69,213.56Z"/></g><rect id="Rectangle_143" data-name="Rectangle 143" class="cls-4" x="3.33" y="841.86" width="841.86" height="841.86"/><rect id="Rectangle_144" data-name="Rectangle 144" class="cls-4" x="845.21" y="841.86" width="841.86" height="841.86"/><rect id="Rectangle_145" data-name="Rectangle 145" class="cls-5" x="845.21" y="1683.73" width="841.86" height="841.86"/><rect id="Rectangle_146" data-name="Rectangle 146" class="cls-4" x="1687.08" y="1683.73" width="841.86" height="841.86"/><rect id="Rectangle_147" data-name="Rectangle 147" class="cls-5" x="1684.15" y="2525.6" width="841.86" height="841.86"/><rect id="Rectangle_148" data-name="Rectangle 148" class="cls-4" x="2528.94" y="2525.6" width="841.86" height="841.86"/><g id="Group_36" data-name="Group 36"><path id="Path_100" data-name="Path 100" class="cls-3" d="M65.63,889.19H233.76l187.78,397.65,189-397.65H776.23v736.37H597V1297.88L436.27,1650.11H406.86L246.09,1295.42v330.14H65.63Z"/></g><g id="Group_37" data-name="Group 37"><path id="Path_101" data-name="Path 101" class="cls-3" d="M1266.14,883.16c228.27,0,390.11,170.29,390.11,386.49s-161.84,386.49-390.11,386.49c-229.48,0-390.12-170.29-390.12-386.49S1036.66,883.16,1266.14,883.16Zm0,605.09c128,0,210.15-96.56,210.15-218.61S1394.15,1051,1266.14,1051c-129.24,0-210.15,96.56-210.15,218.62S1136.9,1488.25,1266.14,1488.25Z"/></g><g id="Group_38" data-name="Group 38"><path id="Path_102" data-name="Path 102" class="cls-3" d="M1208.12,2257.38a77,77,0,0,0,76.3,77.59h.06c45.57,0,73.93-25.86,73.93-64,0-55.42-72.66-71.43-133-92.37C1101,2134.23,1032,2076.34,1032,1949.49c0-130.54,112.07-238.91,251.23-238.91,163.81,0,241.4,104.67,251.24,241.4h-170a71.69,71.69,0,0,0-66.71-76.36,70.63,70.63,0,0,0-9.65,0c-39.41,0-77.58,23.4-77.58,71.42,0,55.42,67.75,65.27,130.55,83.75,131.78,39.41,193.35,113.31,193.35,229.08,0,130.55-110.83,238.92-250,238.92-161.33,0-252.47-108.38-252.47-241.4Z"/></g><g id="Group_39" data-name="Group 39"><path id="Path_103" data-name="Path 103" class="cls-3" d="M2091.55,1727.59H2122l344.6,726.7h-185.2l-35.17-72.68H1968.47l-34,72.68h-185.2Zm96.11,531-80.87-178.15h-2.35l-82,178.15Z"/></g><g id="Group_40" data-name="Group 40"><path id="Path_104" data-name="Path 104" class="cls-3" d="M1995.07,2567.29H2180.9v758.49H1995.07Z"/></g><g id="Group_41" data-name="Group 41"><path id="Path_105" data-name="Path 105" class="cls-3" d="M2997.74,2567.29a397,397,0,0,1,304.58,130.37l-119.7,113.78A264.33,264.33,0,0,0,2997.74,2732c-126.81,0-208.59,94.81-208.59,214.52s81.78,214.51,208.59,214.51a264.32,264.32,0,0,0,184.88-79.4l116.17,113.77a403.76,403.76,0,0,1-301,130.37c-225.19,0-385.17-167.11-385.17-379.25S2772.56,2567.29,2997.74,2567.29Z"/></g><rect id="Rectangle_149" data-name="Rectangle 149" class="cls-4" y="2525.6" width="841.86" height="841.86"/><rect id="Rectangle_150" data-name="Rectangle 150" class="cls-5" x="1687.08" width="841.86" height="841.86"/><rect id="Rectangle_151" data-name="Rectangle 151" class="cls-4" x="2528.94" width="841.86" height="841.86"/></svg>